<svg xmlns="http://www.w3.org/2000/svg" xmlns:xlink="http://www.w3.org/1999/xlink" width="500" zoomAndPan="magnify" viewBox="0 0 375 374.999991" height="500" preserveAspectRatio="xMidYMid meet" version="1.0"><defs><clipPath id="id1"><path d="M 57 71.457031 L 312.460938 71.457031 L 312.460938 269 L 57 269 Z M 57 71.457031 " clip-rule="nonzero"/></clipPath></defs><path fill="rgb(0%, 0%, 0%)" d="M 209.625 130.957031 C 209.441406 131.652344 208.726562 132.058594 208.035156 131.875 L 188.945312 126.773438 C 188.253906 126.585938 187.839844 125.878906 188.027344 125.183594 C 188.214844 124.492188 188.929688 124.085938 189.617188 124.269531 L 208.703125 129.375 C 209.398438 129.554688 209.8125 130.265625 209.625 130.957031 Z M 170.816406 232.4375 C 168.679688 231.863281 166.476562 233.132812 165.898438 235.269531 C 165.328125 237.410156 166.59375 239.605469 168.742188 240.175781 C 170.878906 240.753906 173.078125 239.480469 173.652344 237.347656 C 174.230469 235.210938 172.960938 233.007812 170.816406 232.4375 Z M 211.304688 244.15625 L 238.308594 143.523438 C 240.3125 136.054688 235.859375 128.34375 228.378906 126.347656 L 174.097656 111.824219 C 166.621094 109.820312 158.898438 114.277344 156.894531 121.746094 L 129.886719 222.378906 C 127.882812 229.847656 132.339844 237.546875 139.820312 239.550781 L 194.09375 254.070312 C 201.582031 256.070312 209.296875 251.621094 211.304688 244.15625 Z M 227.335938 130.21875 C 232.683594 131.644531 235.863281 137.148438 234.433594 142.484375 L 207.425781 243.113281 C 205.992188 248.445312 200.480469 251.628906 195.136719 250.199219 L 140.859375 235.683594 C 135.515625 234.253906 132.332031 228.746094 133.765625 223.414062 L 160.773438 122.78125 C 162.207031 117.445312 167.71875 114.265625 173.0625 115.699219 Z M 227.335938 130.21875 " fill-opacity="1" fill-rule="nonzero"/><path fill="rgb(65.098572%, 65.098572%, 65.098572%)" d="M 212.652344 215.886719 C 212.539062 216.3125 212.167969 216.429688 211.828125 216.152344 L 152.003906 165.996094 C 151.664062 165.714844 151.484375 165.136719 151.597656 164.710938 L 156.378906 146.90625 C 156.496094 146.480469 156.863281 146.359375 157.199219 146.648438 L 217.023438 196.796875 C 217.367188 197.078125 217.550781 197.664062 217.433594 198.085938 Z M 212.652344 215.886719 " fill-opacity="1" fill-rule="nonzero"/><path fill="rgb(85.099792%, 85.099792%, 85.099792%)" d="M 151.1875 169.03125 C 150.851562 168.75 150.476562 168.863281 150.371094 169.292969 L 145.589844 187.09375 C 145.476562 187.519531 145.660156 188.105469 145.992188 188.390625 L 202.535156 235.78125 C 202.871094 236.0625 202.800781 236.199219 202.375 236.089844 L 137.902344 218.835938 C 137.472656 218.722656 137.03125 218.980469 136.917969 219.402344 L 136.863281 219.605469 C 136.75 220.027344 137.003906 220.472656 137.429688 220.585938 L 205.664062 238.839844 C 206.089844 238.953125 206.53125 238.695312 206.644531 238.273438 L 206.695312 238.070312 C 206.8125 237.644531 207 236.949219 207.109375 236.519531 L 211.417969 220.46875 C 211.53125 220.042969 211.355469 219.457031 211.011719 219.175781 Z M 151.1875 169.03125 " fill-opacity="1" fill-rule="nonzero"/><path fill="rgb(76.858521%, 56.079102%, 43.139648%)" d="M 232.167969 143.1875 C 232.277344 142.761719 232.027344 142.324219 231.597656 142.207031 L 163.367188 123.957031 C 162.941406 123.84375 162.496094 124.097656 162.382812 124.527344 L 162.332031 124.722656 C 162.214844 125.148438 162.027344 125.847656 161.914062 126.269531 L 157.605469 142.324219 C 157.488281 142.75 157.671875 143.332031 158.007812 143.613281 L 217.839844 193.761719 C 218.179688 194.046875 218.542969 193.929688 218.660156 193.503906 L 223.433594 175.699219 C 223.546875 175.273438 223.367188 174.691406 223.027344 174.410156 L 166.496094 127.023438 C 166.15625 126.742188 166.230469 126.597656 166.65625 126.714844 L 231.128906 143.960938 C 231.558594 144.074219 231.996094 143.820312 232.109375 143.390625 Z M 232.167969 143.1875 " fill-opacity="1" fill-rule="nonzero"/><g clip-path="url(#id1)"><path fill="rgb(0%, 0%, 0%)" d="M 151.722656 116.886719 C 152.121094 116.71875 152.238281 113.8125 152.351562 113.359375 C 152.40625 112.902344 152.636719 110 153.035156 109.828125 C 159.242188 106.753906 165.5625 104.019531 172.054688 101.628906 C 197.050781 92.464844 225.066406 88.421875 251.03125 95.824219 C 272.386719 101.914062 292.144531 115.636719 303.308594 135.050781 C 309.230469 145.296875 312.304688 156.96875 312.359375 168.753906 C 312.417969 174.445312 311.621094 180.027344 310.652344 185.546875 C 309.628906 191.296875 308.429688 196.933594 306.496094 202.457031 C 298.238281 225.96875 280.015625 244.074219 257.921875 255.003906 C 233.378906 267.132812 205.59375 270.207031 178.542969 268.042969 C 164.136719 266.847656 149.789062 264.34375 135.78125 260.871094 C 124.960938 258.25 114.3125 254.835938 104.175781 250.222656 C 84.53125 241.285156 66.253906 226.824219 59.816406 205.417969 C 56.003906 192.777344 57.257812 180.140625 59.761719 167.445312 C 62.210938 155.089844 67.503906 143.644531 74.910156 133.511719 C 90.054688 112.902344 112.605469 97.816406 135.78125 87.566406 C 160.265625 76.75 187.085938 71.457031 213.847656 72.023438 C 213.507812 72.023438 212.996094 79.140625 212.539062 79.140625 C 206.21875 78.972656 199.839844 79.140625 193.519531 79.652344 C 168.238281 81.703125 143.410156 89.105469 121.144531 101.175781 C 99.792969 112.789062 79.351562 128.84375 67.335938 150.363281 C 64.316406 155.828125 61.867188 161.578125 60.160156 167.558594 C 59.820312 168.808594 59.535156 170.121094 59.191406 171.429688 C 58.453125 174.21875 59.535156 168.695312 59.304688 170.632812 C 59.136719 172.339844 58.851562 174.046875 58.738281 175.753906 C 58.507812 178.714844 58.507812 181.734375 58.738281 184.695312 C 59.476562 196.136719 63.460938 207.066406 70.296875 216.292969 C 82.824219 233.257812 102.867188 243.164062 122.457031 249.539062 C 134.015625 253.296875 145.972656 255.917969 157.929688 258.023438 C 172.167969 260.46875 186.628906 261.894531 201.09375 261.4375 C 225.75 260.753906 250.519531 254.605469 271.304688 240.941406 C 281.210938 234.394531 290.039062 226.199219 296.929688 216.519531 C 300.34375 211.621094 303.308594 206.441406 305.640625 200.976562 C 306.835938 198.1875 307.917969 195.339844 308.832031 192.4375 C 309.285156 191.011719 309.683594 189.589844 310.027344 188.167969 C 310.195312 187.425781 310.367188 186.6875 310.539062 185.945312 C 311.164062 183.328125 310.195312 188.792969 310.480469 186.117188 C 311.675781 174.445312 310.992188 163.058594 306.78125 151.957031 C 303.023438 142.050781 296.929688 133.113281 289.414062 125.710938 C 273.296875 109.714844 251.375 100.777344 228.824219 99.238281 C 202.117188 97.472656 175.527344 105.160156 151.722656 116.886719 Z M 151.722656 116.886719 " fill-opacity="1" fill-rule="nonzero"/></g></svg>