<svg xmlns="http://www.w3.org/2000/svg" xmlns:xlink="http://www.w3.org/1999/xlink" width="500" zoomAndPan="magnify" viewBox="0 0 375 374.999991" height="500" preserveAspectRatio="xMidYMid meet" version="1.0"><defs><clipPath id="id1"><path d="M 120.136719 123.8125 L 255.136719 123.8125 L 255.136719 250.984375 L 120.136719 250.984375 Z M 120.136719 123.8125 " clip-rule="nonzero"/></clipPath><clipPath id="id2"><path d="M 76 92 L 300.140625 92 L 300.140625 265 L 76 265 Z M 76 92 " clip-rule="nonzero"/></clipPath></defs><g clip-path="url(#id1)"><path fill="rgb(43.139648%, 76.858521%, 56.079102%)" d="M 218.511719 202.722656 C 216.808594 202.296875 215.539062 201.878906 214.253906 201.03125 L 206.585938 223.0625 Z M 120.136719 183.222656 C 120.136719 176.867188 124.390625 170.9375 130.78125 167.550781 C 122.691406 156.945312 131.210938 145.507812 147.390625 144.660156 C 151.226562 133.210938 167.835938 127.710938 181.882812 131.101562 C 190.40625 119.648438 207.015625 122.191406 212.554688 135.335938 C 222.777344 134.058594 231.707031 141.691406 232.988281 152.285156 C 239.808594 154.835938 244.914062 161.609375 244.914062 169.660156 C 250.871094 173.0625 255.136719 178.988281 255.136719 185.761719 C 255.136719 198.488281 239.808594 207.386719 224.898438 204.847656 C 221.496094 210.777344 212.554688 226.03125 210.421875 231.542969 C 207.4375 238.746094 209.148438 243.410156 206.585938 248.074219 C 204.453125 252.308594 179.761719 251.460938 175.078125 248.488281 C 170.820312 245.101562 175.078125 234.511719 169.957031 229.847656 C 164.003906 227.308594 152.929688 209.5 149.523438 202.722656 C 134.613281 204.847656 120.136719 195.9375 120.136719 183.222656 Z M 163.152344 196.785156 C 161.019531 198.488281 158.898438 200.183594 156.332031 201.03125 C 159.746094 207.804688 170.390625 221.796875 169.957031 217.132812 C 169.957031 213.316406 165.285156 201.878906 163.152344 196.785156 Z M 185.300781 200.183594 C 182.316406 199.753906 179.761719 198.90625 177.628906 198.0625 C 179.332031 206.113281 187.851562 223.0625 190.824219 226.03125 Z M 195.941406 199.753906 C 194.660156 200.183594 192.957031 200.183594 191.6875 200.183594 L 195.941406 217.132812 Z M 176.347656 246.796875 C 178.480469 248.488281 187.851562 248.917969 190.824219 248.917969 C 193.808594 248.917969 197.210938 248.917969 200.628906 248.488281 C 201.480469 248.488281 204.453125 247.644531 204.882812 246.796875 C 207.015625 243.839844 205.316406 237.898438 208.285156 230.695312 C 210.851562 225.183594 219.359375 210.347656 223.195312 204.417969 C 221.914062 203.988281 221.074219 203.988281 220.210938 203.570312 L 207.4375 225.183594 L 204.453125 223.917969 L 212.554688 199.753906 C 212.554688 199.335938 211.269531 198.0625 210.851562 198.0625 L 204.453125 212.46875 L 201.910156 211.621094 L 201.910156 198.488281 C 200.628906 198.90625 199.347656 199.335938 198.074219 199.753906 L 197.644531 219.253906 L 194.660156 219.671875 L 189.554688 200.183594 C 188.703125 200.183594 187.851562 200.183594 187.421875 200.183594 L 193.390625 227.722656 L 190.824219 228.570312 C 188.703125 226.878906 187.851562 225.613281 185.71875 221.367188 C 182.316406 215.855469 176.347656 203.570312 175.496094 197.214844 C 172.09375 195.9375 169.539062 193.828125 167.40625 191.703125 C 166.988281 193.398438 165.703125 194.242188 164.851562 195.519531 C 166.988281 200.601562 172.09375 212.46875 172.09375 217.132812 C 172.09375 218.410156 171.660156 219.253906 170.820312 219.671875 C 168.6875 220.949219 166.136719 218.410156 164.851562 217.132812 C 162.300781 213.746094 156.761719 206.542969 154.628906 201.878906 C 153.359375 201.878906 152.496094 202.296875 151.226562 202.296875 C 155.480469 209.929688 165.703125 226.03125 170.820312 227.722656 L 171.660156 228.570312 C 177.199219 233.664062 173.375 244.683594 176.347656 246.796875 Z M 208.71875 195.089844 C 207.015625 196.367188 205.316406 197.214844 203.613281 197.632812 L 203.613281 209.5 L 209.148438 196.367188 C 208.71875 195.9375 209.148438 195.9375 208.71875 195.089844 " fill-opacity="1" fill-rule="nonzero"/></g><g clip-path="url(#id2)"><path fill="rgb(0%, 0%, 0%)" d="M 159.144531 131.554688 C 159.492188 131.402344 159.59375 128.863281 159.695312 128.464844 C 159.742188 128.066406 159.941406 125.523438 160.292969 125.375 C 165.738281 122.683594 171.28125 120.289062 176.976562 118.195312 C 198.90625 110.171875 223.480469 106.632812 246.257812 113.113281 C 264.992188 118.445312 282.324219 130.457031 292.113281 147.453125 C 297.308594 156.425781 300.007812 166.644531 300.054688 176.960938 C 300.105469 181.945312 299.40625 186.828125 298.558594 191.664062 C 297.660156 196.699219 296.609375 201.632812 294.910156 206.46875 C 287.667969 227.050781 271.683594 242.902344 252.304688 252.472656 C 230.773438 263.089844 206.398438 265.78125 182.671875 263.886719 C 170.035156 262.839844 157.445312 260.644531 145.15625 257.605469 C 135.667969 255.3125 126.324219 252.320312 117.433594 248.285156 C 100.203125 240.460938 84.167969 227.800781 78.523438 209.058594 C 75.175781 197.992188 76.273438 186.929688 78.472656 175.8125 C 80.621094 164.996094 85.265625 154.980469 91.761719 146.109375 C 105.046875 128.066406 124.828125 114.855469 145.15625 105.886719 C 166.636719 96.414062 190.164062 91.78125 213.640625 92.277344 C 213.339844 92.277344 212.890625 98.507812 212.492188 98.507812 C 206.945312 98.359375 201.351562 98.507812 195.808594 98.957031 C 173.628906 100.75 151.851562 107.230469 132.320312 117.796875 C 113.589844 127.964844 95.65625 142.019531 85.117188 160.859375 C 82.46875 165.644531 80.320312 170.679688 78.824219 175.914062 C 78.523438 177.011719 78.273438 178.15625 77.972656 179.304688 C 77.324219 181.746094 78.273438 176.910156 78.074219 178.605469 C 77.921875 180.101562 77.671875 181.59375 77.574219 183.089844 C 77.375 185.683594 77.375 188.324219 77.574219 190.917969 C 78.222656 200.933594 81.71875 210.503906 87.714844 218.578125 C 98.703125 233.433594 116.285156 242.105469 133.46875 247.6875 C 143.609375 250.976562 154.097656 253.269531 164.589844 255.113281 C 177.078125 257.257812 189.765625 258.503906 202.453125 258.105469 C 224.082031 257.503906 245.808594 252.121094 264.042969 240.160156 C 272.734375 234.429688 280.476562 227.25 286.519531 218.777344 C 289.515625 214.492188 292.113281 209.957031 294.160156 205.171875 C 295.210938 202.730469 296.160156 200.238281 296.960938 197.695312 C 297.359375 196.449219 297.707031 195.203125 298.007812 193.957031 C 298.15625 193.308594 298.308594 192.660156 298.457031 192.011719 C 299.007812 189.71875 298.15625 194.503906 298.40625 192.164062 C 299.457031 181.945312 298.855469 171.976562 295.160156 162.257812 C 291.863281 153.585938 286.519531 145.757812 279.925781 139.28125 C 265.789062 125.273438 246.558594 117.449219 226.777344 116.101562 C 203.351562 114.558594 180.023438 121.285156 159.144531 131.554688 Z M 159.144531 131.554688 " fill-opacity="1" fill-rule="nonzero"/></g></svg>