<svg xmlns="http://www.w3.org/2000/svg" xmlns:xlink="http://www.w3.org/1999/xlink" width="1500" zoomAndPan="magnify" viewBox="0 0 1125 749.999995" height="1000" preserveAspectRatio="xMidYMid meet" version="1.0"><defs><clipPath id="id1"><path d="M 13.808594 508 L 243 508 L 243 703 L 13.808594 703 Z M 13.808594 508 " clip-rule="nonzero"/></clipPath></defs><rect x="-112.5" width="1350" fill="rgb(100%, 100%, 100%)" y="-74.999999" height="899.999994" fill-opacity="1"/><rect x="-112.5" width="1350" fill="rgb(0%, 0%, 0%)" y="-74.999999" height="899.999994" fill-opacity="1"/><rect x="-112.5" width="1350" fill="rgb(100%, 100%, 100%)" y="-74.999999" height="899.999994" fill-opacity="1"/><rect x="-112.5" width="1350" fill="rgb(0%, 0%, 0%)" y="-74.999999" height="899.999994" fill-opacity="1"/><g clip-path="url(#id1)"><path fill="rgb(76.858521%, 56.079102%, 43.139648%)" d="M 201.953125 560.519531 C 194.125 554.300781 193.164062 543.324219 199.8125 535.996094 C 206.457031 528.667969 218.191406 527.777344 226.019531 533.996094 C 226.152344 534.101562 226.246094 534.230469 226.378906 534.332031 L 242.597656 516.457031 L 146.726562 508.761719 L 13.9375 655.0625 L 73.71875 702.539062 L 202.363281 560.789062 C 202.234375 560.6875 202.082031 560.625 201.953125 560.519531 Z M 201.953125 560.519531 " fill-opacity="1" fill-rule="nonzero"/></g><path fill="rgb(76.858521%, 56.079102%, 43.139648%)" d="M 242.597656 516.457031 L 226.378906 534.332031 C 233.851562 540.601562 234.707031 551.3125 228.160156 558.519531 C 221.628906 565.722656 210.195312 566.667969 202.363281 560.789062 L 73.71875 702.539062 L 133.5 750.011719 L 266.277344 603.707031 Z M 242.597656 516.457031 " fill-opacity="1" fill-rule="nonzero"/><path fill="rgb(89.408875%, 89.408875%, 89.408875%)" d="M 117.800781 668.347656 C 114.796875 665.964844 111.472656 664.945312 107.664062 665.25 L 90.296875 684.382812 C 93.375 683.894531 96.632812 682.675781 99.996094 680.835938 C 105.15625 677.953125 107.691406 677.222656 109.578125 678.71875 C 111.511719 680.253906 111.257812 682.804688 108.253906 686.117188 C 104.960938 689.738281 100.574219 692.308594 97.394531 693.546875 L 104.238281 702.105469 C 107.230469 700.988281 112.246094 697.726562 116.167969 693.402344 C 125.707031 682.894531 124.421875 673.605469 117.800781 668.347656 Z M 117.800781 668.347656 " fill-opacity="1" fill-rule="nonzero"/><path fill="rgb(89.408875%, 89.408875%, 89.408875%)" d="M 133.535156 641.929688 L 127.480469 648.601562 L 125.304688 645.816406 L 117.410156 654.511719 L 131.910156 674.976562 L 140.960938 664.996094 L 133.910156 655.910156 L 142.332031 646.621094 L 153.316406 651.390625 L 162.75 640.992188 L 138.660156 631.089844 L 130.203125 640.414062 Z M 133.535156 641.929688 " fill-opacity="1" fill-rule="nonzero"/><path fill="rgb(89.408875%, 89.408875%, 89.408875%)" d="M 166.910156 636.414062 L 188.21875 612.9375 L 179.601562 606.097656 L 167.058594 619.917969 L 156.449219 611.496094 L 147.683594 621.148438 Z M 166.910156 636.414062 " fill-opacity="1" fill-rule="nonzero"/><path fill="rgb(89.408875%, 89.408875%, 89.408875%)" d="M 192.46875 608.25 L 214.351562 584.132812 L 205.914062 577.429688 L 192.789062 591.898438 L 185.71875 586.28125 L 197.4375 573.363281 L 193.730469 570.421875 L 173.246094 592.984375 Z M 192.46875 608.25 " fill-opacity="1" fill-rule="nonzero"/><path fill="rgb(96.859741%, 98.039246%, 98.81897%)" d="M 97.695312 668.449219 C 91.808594 671.574219 89.265625 672.867188 87.320312 671.320312 C 85.621094 669.964844 85.921875 667.460938 88.589844 664.527344 C 91.835938 660.945312 95.335938 659.140625 97.488281 658.179688 L 91.113281 649.636719 C 87.835938 651.074219 84.175781 653.488281 80.296875 657.757812 C 72.074219 666.824219 72.421875 676.382812 79.210938 681.777344 C 82.457031 684.351562 86.234375 685.023438 90.296875 684.382812 L 107.664062 665.25 C 104.679688 665.476562 101.402344 666.503906 97.695312 668.449219 Z M 97.695312 668.449219 " fill-opacity="1" fill-rule="nonzero"/><path fill="rgb(96.859741%, 98.039246%, 98.81897%)" d="M 102.902344 634.046875 L 117.410156 654.511719 L 125.304688 645.816406 L 121.980469 641.570312 C 120.253906 639.367188 117.550781 636.300781 115.800781 634.003906 L 115.894531 633.894531 C 118.65625 635.074219 122.476562 636.914062 125.125 638.101562 L 130.203125 640.414062 L 138.660156 631.089844 L 114.582031 621.1875 Z M 102.902344 634.046875 " fill-opacity="1" fill-rule="nonzero"/><path fill="rgb(96.859741%, 98.039246%, 98.81897%)" d="M 128.464844 605.886719 L 147.683594 621.148438 L 156.449219 611.496094 L 137.234375 596.230469 Z M 128.464844 605.886719 " fill-opacity="1" fill-rule="nonzero"/><path fill="rgb(96.859741%, 98.039246%, 98.81897%)" d="M 177.394531 579.664062 L 171.226562 574.769531 L 183.675781 561.050781 L 175.234375 554.351562 L 154.027344 577.71875 L 173.246094 592.984375 L 193.730469 570.421875 L 189.109375 566.75 Z M 177.394531 579.664062 " fill-opacity="1" fill-rule="nonzero"/><path fill="rgb(18.03894%, 19.999695%, 22.749329%)" d="M 224.867188 539.589844 L 216.664062 534.898438 C 218.09375 532.707031 252.335938 480.855469 304.71875 450 L 309.84375 457.613281 C 259.34375 487.347656 225.203125 539.070312 224.867188 539.589844 Z M 224.867188 539.589844 " fill-opacity="1" fill-rule="nonzero"/></svg>