<svg xmlns="http://www.w3.org/2000/svg" xmlns:xlink="http://www.w3.org/1999/xlink" width="500" zoomAndPan="magnify" viewBox="0 0 375 374.999991" height="500" preserveAspectRatio="xMidYMid meet" version="1.0"><defs><clipPath id="id1"><path d="M 129 165 L 249.742188 165 L 249.742188 221 L 129 221 Z M 129 165 " clip-rule="nonzero"/></clipPath><clipPath id="id2"><path d="M 224 128.042969 L 241 128.042969 L 241 186 L 224 186 Z M 224 128.042969 " clip-rule="nonzero"/></clipPath><clipPath id="id3"><path d="M 224 180 L 241 180 L 241 251.042969 L 224 251.042969 Z M 224 180 " clip-rule="nonzero"/></clipPath><clipPath id="id4"><path d="M 205 199 L 222 199 L 222 251.042969 L 205 251.042969 Z M 205 199 " clip-rule="nonzero"/></clipPath><clipPath id="id5"><path d="M 186 197 L 203 197 L 203 251.042969 L 186 251.042969 Z M 186 197 " clip-rule="nonzero"/></clipPath><clipPath id="id6"><path d="M 167 207 L 184 207 L 184 251.042969 L 167 251.042969 Z M 167 207 " clip-rule="nonzero"/></clipPath><clipPath id="id7"><path d="M 148 205 L 165 205 L 165 251.042969 L 148 251.042969 Z M 148 205 " clip-rule="nonzero"/></clipPath><clipPath id="id8"><path d="M 129 210 L 146 210 L 146 251.042969 L 129 251.042969 Z M 129 210 " clip-rule="nonzero"/></clipPath><clipPath id="id9"><path d="M 80 102 L 299.570312 102 L 299.570312 272 L 80 272 Z M 80 102 " clip-rule="nonzero"/></clipPath></defs><g clip-path="url(#id1)"><path fill="rgb(13.729858%, 22.349548%, 26.669312%)" d="M 134.320312 208.828125 C 135.511719 208.761719 136.636719 209.070312 137.582031 209.648438 L 147.699219 200.035156 L 147.714844 200.066406 C 147.429688 199.441406 147.25 198.753906 147.210938 198.027344 C 147.121094 196.472656 147.667969 195.03125 148.625 193.957031 C 149.582031 192.878906 150.949219 192.167969 152.5 192.078125 C 154.046875 191.988281 155.488281 192.539062 156.5625 193.496094 C 157.632812 194.453125 158.34375 195.824219 158.433594 197.378906 C 158.480469 198.203125 158.347656 198.996094 158.070312 199.71875 C 158.09375 199.65625 158.117188 199.597656 158.136719 199.535156 L 169.320312 208.1875 C 169.296875 208.203125 169.277344 208.21875 169.253906 208.234375 C 170.074219 207.667969 171.050781 207.3125 172.117188 207.25 C 173.039062 207.199219 173.917969 207.367188 174.707031 207.71875 L 188.242188 192.894531 L 188.246094 192.902344 C 187.847656 192.183594 187.601562 191.371094 187.550781 190.496094 C 187.460938 188.945312 188.011719 187.5 188.96875 186.425781 C 189.925781 185.347656 191.292969 184.636719 192.84375 184.546875 C 194.390625 184.457031 195.832031 185.007812 196.90625 185.96875 C 197.980469 186.929688 198.6875 188.296875 198.777344 189.851562 C 198.816406 190.554688 198.726562 191.234375 198.527344 191.871094 C 198.535156 191.847656 198.542969 191.824219 198.550781 191.800781 L 208.828125 199.128906 L 208.78125 199.164062 C 209.628906 198.53125 210.664062 198.132812 211.800781 198.066406 C 212.792969 198.007812 213.738281 198.214844 214.574219 198.621094 C 214.550781 198.609375 214.527344 198.597656 214.507812 198.589844 L 240.851562 171.898438 L 237.980469 169.003906 L 243.851562 167.445312 L 249.726562 165.886719 L 248.136719 171.761719 L 246.550781 177.632812 L 243.398438 174.457031 L 217.117188 201.085938 C 217.472656 201.773438 217.695312 202.546875 217.742188 203.371094 C 217.832031 204.925781 217.285156 206.367188 216.328125 207.445312 C 215.375 208.519531 214.007812 209.230469 212.453125 209.320312 C 210.902344 209.410156 209.464844 208.859375 208.390625 207.902344 C 207.320312 206.945312 206.609375 205.574219 206.519531 204.019531 C 206.480469 203.316406 206.570312 202.636719 206.769531 202 C 206.761719 202.023438 206.753906 202.046875 206.746094 202.070312 L 196.472656 194.746094 C 196.527344 194.707031 196.578125 194.667969 196.632812 194.625 C 195.761719 195.304688 194.683594 195.734375 193.5 195.804688 C 192.578125 195.855469 191.695312 195.6875 190.910156 195.339844 L 177.375 210.160156 L 177.371094 210.152344 C 177.765625 210.871094 178.011719 211.683594 178.0625 212.558594 C 178.152344 214.109375 177.605469 215.554688 176.644531 216.632812 C 175.691406 217.707031 174.324219 218.417969 172.769531 218.507812 C 171.222656 218.597656 169.78125 218.046875 168.710938 217.085938 C 167.636719 216.128906 166.925781 214.757812 166.835938 213.203125 C 166.792969 212.429688 166.90625 211.683594 167.148438 210.996094 L 167.128906 211.046875 L 155.945312 202.398438 C 155.96875 202.382812 155.988281 202.367188 156.011719 202.351562 C 155.195312 202.917969 154.214844 203.269531 153.148438 203.332031 C 152.058594 203.394531 151.027344 203.144531 150.136719 202.652344 L 150.171875 202.671875 L 139.902344 212.433594 C 140.105469 212.964844 140.230469 213.535156 140.265625 214.132812 C 140.355469 215.683594 139.804688 217.128906 138.847656 218.207031 C 137.890625 219.28125 136.523438 219.992188 134.972656 220.082031 C 133.425781 220.171875 131.984375 219.625 130.910156 218.660156 C 129.835938 217.703125 129.128906 216.332031 129.039062 214.777344 C 128.949219 213.226562 129.496094 211.78125 130.457031 210.707031 C 131.410156 209.628906 132.777344 208.917969 134.328125 208.828125 Z M 214.570312 198.625 C 214.589844 198.632812 214.609375 198.644531 214.628906 198.652344 C 214.609375 198.644531 214.589844 198.632812 214.570312 198.625 Z M 214.753906 198.71875 C 214.792969 198.738281 214.828125 198.757812 214.867188 198.78125 C 214.832031 198.761719 214.792969 198.738281 214.753906 198.71875 Z M 214.871094 198.78125 C 214.929688 198.8125 214.984375 198.847656 215.039062 198.878906 C 214.984375 198.84375 214.925781 198.8125 214.871094 198.78125 Z M 215.046875 198.882812 C 215.101562 198.917969 215.160156 198.953125 215.214844 198.988281 C 215.160156 198.953125 215.105469 198.917969 215.046875 198.882812 Z M 215.21875 198.992188 L 215.277344 199.027344 C 215.253906 199.015625 215.238281 199.003906 215.21875 198.992188 Z M 215.335938 199.074219 L 215.386719 199.109375 C 215.371094 199.097656 215.355469 199.085938 215.335938 199.074219 Z M 215.390625 199.113281 C 215.40625 199.125 215.425781 199.136719 215.441406 199.152344 C 215.425781 199.140625 215.40625 199.128906 215.390625 199.113281 Z M 215.558594 199.238281 C 215.609375 199.277344 215.660156 199.316406 215.707031 199.355469 C 215.65625 199.316406 215.609375 199.273438 215.558594 199.238281 Z M 216.015625 199.632812 C 216.03125 199.644531 216.042969 199.660156 216.058594 199.671875 C 216.046875 199.660156 216.03125 199.644531 216.015625 199.632812 Z M 216.058594 199.671875 C 216.074219 199.6875 216.089844 199.703125 216.105469 199.71875 C 216.089844 199.703125 216.074219 199.6875 216.058594 199.671875 Z M 216.246094 199.871094 L 216.289062 199.917969 C 216.273438 199.902344 216.261719 199.886719 216.246094 199.871094 Z M 216.464844 200.125 C 216.492188 200.15625 216.519531 200.191406 216.542969 200.226562 C 216.515625 200.191406 216.488281 200.160156 216.464844 200.125 Z M 216.550781 200.230469 C 216.578125 200.265625 216.605469 200.300781 216.628906 200.335938 C 216.601562 200.300781 216.574219 200.265625 216.550781 200.230469 Z M 216.679688 200.394531 L 216.714844 200.441406 C 216.703125 200.425781 216.691406 200.410156 216.679688 200.394531 Z M 216.792969 200.558594 C 216.804688 200.578125 216.816406 200.597656 216.828125 200.617188 C 216.816406 200.597656 216.804688 200.578125 216.792969 200.558594 Z M 216.832031 200.621094 L 216.867188 200.675781 C 216.855469 200.65625 216.84375 200.640625 216.832031 200.621094 Z M 215.707031 199.359375 C 215.722656 199.371094 215.738281 199.382812 215.75 199.398438 Z M 198.476562 192.015625 L 198.457031 192.070312 C 198.464844 192.050781 198.46875 192.03125 198.476562 192.015625 Z M 198.457031 192.074219 C 198.441406 192.113281 198.425781 192.15625 198.414062 192.195312 C 198.429688 192.15625 198.445312 192.113281 198.457031 192.074219 Z M 198.382812 192.273438 L 198.359375 192.328125 C 198.367188 192.308594 198.375 192.289062 198.382812 192.273438 Z M 198.359375 192.332031 C 198.351562 192.351562 198.34375 192.371094 198.332031 192.394531 C 198.339844 192.375 198.347656 192.355469 198.359375 192.332031 Z M 198.277344 192.519531 L 198.253906 192.574219 C 198.261719 192.558594 198.269531 192.539062 198.277344 192.519531 Z M 198.25 192.582031 C 198.242188 192.601562 198.230469 192.621094 198.222656 192.636719 C 198.230469 192.617188 198.242188 192.597656 198.25 192.582031 Z M 197.359375 193.929688 C 197.332031 193.960938 197.300781 193.996094 197.269531 194.027344 C 197.300781 193.996094 197.328125 193.960938 197.359375 193.929688 Z M 197.03125 194.269531 C 197 194.300781 196.96875 194.328125 196.933594 194.359375 C 196.964844 194.328125 197 194.300781 197.03125 194.269531 Z M 196.777344 194.496094 C 196.726562 194.542969 196.675781 194.582031 196.625 194.625 C 196.675781 194.585938 196.726562 194.542969 196.777344 194.496094 Z M 206.78125 201.929688 C 206.789062 201.910156 206.792969 201.890625 206.800781 201.871094 Z M 206.804688 201.859375 C 206.8125 201.839844 206.816406 201.820312 206.824219 201.800781 Z M 206.824219 201.796875 C 206.839844 201.757812 206.855469 201.714844 206.871094 201.675781 C 206.855469 201.714844 206.839844 201.757812 206.824219 201.796875 Z M 206.898438 201.605469 C 206.90625 201.585938 206.914062 201.566406 206.921875 201.546875 C 206.914062 201.566406 206.90625 201.585938 206.898438 201.605469 Z M 206.921875 201.542969 C 206.9375 201.503906 206.957031 201.460938 206.972656 201.421875 C 206.957031 201.460938 206.9375 201.5 206.921875 201.542969 Z M 207.003906 201.355469 C 207.011719 201.332031 207.019531 201.316406 207.027344 201.296875 Z M 207.03125 201.289062 C 207.054688 201.25 207.074219 201.210938 207.09375 201.171875 Z M 207.09375 201.171875 C 207.105469 201.152344 207.113281 201.132812 207.121094 201.113281 C 207.109375 201.132812 207.101562 201.152344 207.09375 201.171875 Z M 207.222656 200.933594 C 207.234375 200.914062 207.242188 200.894531 207.253906 200.878906 Z M 207.328125 200.75 C 207.351562 200.714844 207.371094 200.679688 207.394531 200.644531 Z M 207.433594 200.582031 C 207.445312 200.566406 207.457031 200.546875 207.46875 200.53125 C 207.457031 200.546875 207.445312 200.566406 207.433594 200.582031 Z M 207.710938 200.199219 C 207.722656 200.183594 207.738281 200.164062 207.75 200.148438 Z M 207.925781 199.945312 C 207.953125 199.914062 207.984375 199.878906 208.015625 199.847656 C 207.984375 199.878906 207.957031 199.914062 207.925781 199.945312 Z M 208.066406 199.789062 C 208.097656 199.757812 208.125 199.726562 208.15625 199.695312 Z M 208.207031 199.648438 C 208.222656 199.632812 208.238281 199.617188 208.253906 199.601562 Z M 208.253906 199.601562 C 208.285156 199.570312 208.316406 199.542969 208.351562 199.511719 C 208.320312 199.542969 208.285156 199.570312 208.253906 199.601562 Z M 208.351562 199.511719 C 208.367188 199.496094 208.386719 199.480469 208.402344 199.46875 Z M 208.457031 199.421875 C 208.472656 199.40625 208.488281 199.394531 208.507812 199.378906 C 208.492188 199.394531 208.476562 199.40625 208.457031 199.421875 Z M 208.511719 199.375 C 208.558594 199.335938 208.609375 199.292969 208.660156 199.257812 C 208.609375 199.296875 208.5625 199.335938 208.511719 199.375 Z M 208.71875 199.210938 C 208.734375 199.199219 208.753906 199.183594 208.769531 199.171875 C 208.753906 199.183594 208.734375 199.199219 208.71875 199.210938 Z M 197.957031 193.121094 C 197.933594 193.15625 197.914062 193.191406 197.890625 193.226562 Z M 197.214844 194.078125 C 197.183594 194.109375 197.15625 194.140625 197.125 194.167969 Z M 197.074219 194.21875 C 197.058594 194.234375 197.042969 194.25 197.027344 194.265625 Z M 196.925781 194.355469 C 196.910156 194.371094 196.890625 194.386719 196.875 194.402344 Z M 175.472656 208.136719 L 175.523438 208.171875 C 175.507812 208.160156 175.488281 208.148438 175.472656 208.136719 Z M 175.648438 208.257812 L 175.695312 208.289062 C 175.679688 208.277344 175.664062 208.269531 175.648438 208.257812 Z M 176.417969 208.902344 L 176.460938 208.949219 C 176.445312 208.929688 176.433594 208.917969 176.417969 208.902344 Z M 176.511719 209.003906 L 176.550781 209.046875 C 176.539062 209.03125 176.523438 209.019531 176.511719 209.003906 Z M 176.558594 209.054688 C 176.570312 209.070312 176.585938 209.082031 176.597656 209.097656 C 176.585938 209.082031 176.570312 209.070312 176.558594 209.054688 Z M 176.695312 209.207031 C 176.75 209.273438 176.804688 209.339844 176.859375 209.40625 C 176.804688 209.339844 176.75 209.269531 176.695312 209.207031 Z M 176.863281 209.414062 C 176.890625 209.449219 176.921875 209.484375 176.945312 209.519531 C 176.917969 209.484375 176.890625 209.449219 176.863281 209.414062 Z M 176.988281 209.574219 C 177.011719 209.609375 177.039062 209.644531 177.0625 209.679688 C 177.039062 209.644531 177.011719 209.609375 176.988281 209.574219 Z M 177.105469 209.75 L 177.136719 209.800781 C 177.125 209.785156 177.113281 209.765625 177.105469 209.75 Z M 177.140625 209.800781 C 177.175781 209.855469 177.210938 209.910156 177.246094 209.96875 C 177.210938 209.914062 177.175781 209.855469 177.140625 209.800781 Z M 176.367188 208.855469 C 176.382812 208.871094 176.398438 208.886719 176.414062 208.902344 Z M 176.464844 208.957031 C 176.480469 208.972656 176.496094 208.988281 176.507812 209.003906 Z M 176.945312 209.519531 C 176.957031 209.539062 176.972656 209.554688 176.984375 209.574219 Z M 190.761719 195.277344 C 190.722656 195.253906 190.683594 195.234375 190.640625 195.214844 C 190.679688 195.234375 190.71875 195.253906 190.761719 195.277344 Z M 190.578125 195.183594 C 190.558594 195.175781 190.539062 195.164062 190.523438 195.15625 C 190.542969 195.167969 190.5625 195.175781 190.578125 195.183594 Z M 190.457031 195.121094 C 190.417969 195.101562 190.382812 195.078125 190.34375 195.058594 C 190.382812 195.078125 190.417969 195.101562 190.457031 195.121094 Z M 190.339844 195.054688 C 190.300781 195.03125 190.265625 195.011719 190.226562 194.988281 C 190.261719 195.011719 190.300781 195.035156 190.339844 195.054688 Z M 190.226562 194.988281 C 190.207031 194.976562 190.1875 194.964844 190.167969 194.953125 C 190.1875 194.964844 190.207031 194.976562 190.226562 194.988281 Z M 190.167969 194.953125 C 190.148438 194.941406 190.128906 194.929688 190.113281 194.917969 C 190.132812 194.929688 190.152344 194.941406 190.167969 194.953125 Z M 190.109375 194.917969 C 190.089844 194.90625 190.074219 194.894531 190.054688 194.882812 C 190.074219 194.894531 190.089844 194.90625 190.109375 194.917969 Z M 190.050781 194.878906 C 190.035156 194.867188 190.015625 194.855469 190 194.84375 Z M 189.882812 194.761719 C 189.867188 194.75 189.847656 194.738281 189.832031 194.726562 Z M 189.214844 194.199219 C 189.199219 194.183594 189.183594 194.167969 189.167969 194.152344 Z M 189.113281 194.097656 C 189.101562 194.085938 189.085938 194.070312 189.074219 194.058594 Z M 189.074219 194.054688 C 189.042969 194.023438 189.015625 193.992188 188.988281 193.960938 C 189.015625 193.992188 189.046875 194.023438 189.074219 194.054688 Z M 188.890625 193.851562 C 188.878906 193.835938 188.863281 193.820312 188.851562 193.804688 Z M 188.851562 193.804688 C 188.839844 193.789062 188.824219 193.773438 188.8125 193.757812 C 188.824219 193.773438 188.839844 193.789062 188.851562 193.804688 Z M 188.808594 193.746094 C 188.796875 193.730469 188.78125 193.714844 188.769531 193.695312 Z M 188.523438 193.367188 C 188.511719 193.347656 188.5 193.332031 188.488281 193.3125 C 188.5 193.332031 188.511719 193.347656 188.523438 193.367188 Z M 188.273438 192.960938 C 188.261719 192.941406 188.253906 192.925781 188.242188 192.90625 C 188.253906 192.925781 188.261719 192.941406 188.273438 192.960938 Z M 158.039062 199.792969 C 158.023438 199.835938 158.007812 199.875 157.988281 199.914062 C 158.003906 199.875 158.023438 199.835938 158.039062 199.792969 Z M 157.988281 199.917969 C 157.980469 199.9375 157.972656 199.957031 157.960938 199.976562 C 157.96875 199.957031 157.976562 199.9375 157.988281 199.917969 Z M 157.933594 200.042969 C 157.925781 200.0625 157.914062 200.082031 157.90625 200.101562 C 157.914062 200.082031 157.925781 200.0625 157.933594 200.042969 Z M 157.90625 200.105469 C 157.898438 200.125 157.886719 200.144531 157.878906 200.164062 C 157.886719 200.144531 157.898438 200.125 157.90625 200.105469 Z M 157.878906 200.164062 L 157.875 200.171875 L 157.851562 200.222656 L 157.847656 200.230469 C 157.839844 200.25 157.828125 200.265625 157.820312 200.285156 L 157.820312 200.289062 L 157.789062 200.34375 L 157.789062 200.347656 C 157.777344 200.367188 157.769531 200.386719 157.757812 200.40625 C 157.746094 200.425781 157.738281 200.445312 157.726562 200.460938 L 157.726562 200.464844 C 157.714844 200.484375 157.699219 200.503906 157.691406 200.523438 L 157.691406 200.527344 C 157.667969 200.566406 157.648438 200.605469 157.625 200.640625 C 157.648438 200.605469 157.667969 200.5625 157.691406 200.527344 L 157.886719 200.164062 Z M 157.753906 200.40625 C 157.742188 200.425781 157.734375 200.445312 157.722656 200.460938 Z M 157.71875 200.464844 C 157.703125 200.484375 157.691406 200.503906 157.683594 200.523438 Z M 157.578125 200.699219 C 157.554688 200.734375 157.53125 200.773438 157.507812 200.808594 C 157.53125 200.773438 157.554688 200.734375 157.578125 200.699219 Z M 157.425781 200.925781 C 157.414062 200.941406 157.402344 200.957031 157.390625 200.972656 C 157.402344 200.957031 157.414062 200.941406 157.425781 200.925781 Z M 157.226562 201.191406 C 157.199219 201.226562 157.171875 201.257812 157.144531 201.289062 C 157.171875 201.257812 157.199219 201.222656 157.226562 201.191406 Z M 157.011719 201.453125 C 156.996094 201.46875 156.980469 201.484375 156.96875 201.503906 C 156.984375 201.488281 157 201.472656 157.011719 201.453125 Z M 156.917969 201.554688 L 156.875 201.597656 C 156.890625 201.582031 156.902344 201.566406 156.917969 201.554688 Z M 156.484375 201.972656 L 156.4375 202.011719 C 156.453125 202 156.46875 201.984375 156.484375 201.972656 Z M 156.382812 202.058594 L 156.332031 202.097656 C 156.351562 202.085938 156.367188 202.070312 156.382812 202.058594 Z M 156.273438 202.148438 L 156.226562 202.183594 C 156.242188 202.171875 156.257812 202.160156 156.273438 202.148438 Z M 156.164062 202.230469 L 156.117188 202.265625 C 156.132812 202.253906 156.148438 202.242188 156.164062 202.230469 Z M 156.105469 202.273438 L 156.054688 202.308594 C 156.070312 202.296875 156.085938 202.285156 156.105469 202.273438 Z M 156.054688 202.308594 C 156.035156 202.320312 156.019531 202.332031 156 202.347656 C 156.019531 202.335938 156.035156 202.324219 156.054688 202.308594 Z M 167.234375 210.730469 C 167.242188 210.710938 167.25 210.691406 167.257812 210.671875 C 167.25 210.691406 167.242188 210.710938 167.234375 210.730469 Z M 167.351562 210.476562 C 167.359375 210.453125 167.367188 210.4375 167.378906 210.417969 C 167.371094 210.4375 167.363281 210.453125 167.351562 210.476562 Z M 167.378906 210.417969 C 167.398438 210.378906 167.417969 210.339844 167.4375 210.300781 C 167.417969 210.339844 167.398438 210.378906 167.378906 210.417969 Z M 167.535156 210.117188 C 167.546875 210.097656 167.558594 210.078125 167.566406 210.058594 Z M 167.863281 209.597656 C 167.875 209.582031 167.886719 209.566406 167.894531 209.554688 Z M 167.941406 209.488281 C 167.953125 209.472656 167.964844 209.457031 167.976562 209.445312 Z M 168.023438 209.382812 C 168.046875 209.351562 168.074219 209.320312 168.101562 209.289062 C 168.074219 209.320312 168.050781 209.351562 168.023438 209.382812 Z M 168.234375 209.128906 C 168.25 209.113281 168.265625 209.097656 168.277344 209.078125 C 168.261719 209.09375 168.246094 209.109375 168.234375 209.128906 Z M 168.328125 209.027344 C 168.34375 209.011719 168.355469 208.996094 168.371094 208.984375 Z M 168.371094 208.980469 C 168.386719 208.964844 168.402344 208.949219 168.414062 208.929688 Z M 168.765625 208.605469 C 168.78125 208.59375 168.796875 208.578125 168.8125 208.566406 Z M 168.867188 208.519531 C 168.882812 208.507812 168.898438 208.492188 168.914062 208.480469 Z M 168.972656 208.433594 C 168.988281 208.421875 169.003906 208.410156 169.019531 208.398438 Z M 169.1875 208.273438 C 169.207031 208.261719 169.222656 208.25 169.242188 208.234375 C 169.222656 208.246094 169.207031 208.257812 169.1875 208.273438 Z M 156.867188 201.601562 C 156.851562 201.617188 156.835938 201.632812 156.824219 201.648438 Z M 150.113281 202.648438 C 150.054688 202.617188 149.996094 202.582031 149.9375 202.546875 C 149.996094 202.582031 150.054688 202.613281 150.113281 202.648438 Z M 149.878906 202.511719 C 149.820312 202.476562 149.765625 202.441406 149.710938 202.402344 C 149.765625 202.4375 149.824219 202.476562 149.878906 202.511719 Z M 149.707031 202.402344 C 149.691406 202.390625 149.671875 202.378906 149.65625 202.367188 Z M 149.488281 202.25 C 149.46875 202.238281 149.449219 202.226562 149.433594 202.214844 C 149.449219 202.226562 149.46875 202.238281 149.488281 202.25 Z M 149.375 202.167969 C 149.339844 202.140625 149.304688 202.113281 149.273438 202.082031 Z M 149.269531 202.082031 C 149.253906 202.070312 149.238281 202.054688 149.222656 202.042969 C 149.238281 202.054688 149.253906 202.070312 149.269531 202.082031 Z M 149.113281 201.949219 C 149.097656 201.9375 149.082031 201.921875 149.066406 201.910156 C 149.082031 201.925781 149.097656 201.9375 149.113281 201.949219 Z M 148.867188 201.71875 C 148.851562 201.703125 148.839844 201.691406 148.824219 201.675781 Z M 148.140625 200.835938 C 148.128906 200.820312 148.113281 200.800781 148.101562 200.785156 C 148.113281 200.804688 148.128906 200.820312 148.140625 200.835938 Z M 147.921875 200.488281 C 147.910156 200.46875 147.898438 200.449219 147.886719 200.429688 Z M 213.445312 202.1875 C 213.0625 201.84375 212.546875 201.648438 211.992188 201.679688 C 211.4375 201.710938 210.945312 201.964844 210.605469 202.351562 C 210.265625 202.734375 210.070312 203.253906 210.101562 203.808594 C 210.132812 204.363281 210.386719 204.855469 210.769531 205.199219 C 211.15625 205.539062 211.671875 205.738281 212.222656 205.703125 C 212.78125 205.671875 213.269531 205.417969 213.609375 205.03125 C 213.953125 204.648438 214.152344 204.128906 214.117188 203.574219 C 214.085938 203.019531 213.828125 202.527344 213.445312 202.1875 Z M 194.488281 188.671875 C 194.105469 188.328125 193.589844 188.128906 193.035156 188.164062 C 192.480469 188.195312 191.992188 188.453125 191.648438 188.835938 C 191.308594 189.222656 191.113281 189.738281 191.144531 190.292969 C 191.175781 190.851562 191.429688 191.339844 191.8125 191.683594 C 192.199219 192.023438 192.714844 192.21875 193.265625 192.1875 C 193.824219 192.15625 194.3125 191.902344 194.652344 191.519531 C 194.996094 191.132812 195.191406 190.613281 195.160156 190.0625 C 195.128906 189.503906 194.875 189.011719 194.488281 188.671875 Z M 173.761719 211.371094 C 173.378906 211.027344 172.863281 210.832031 172.308594 210.863281 C 171.753906 210.894531 171.261719 211.148438 170.921875 211.535156 C 170.582031 211.917969 170.386719 212.4375 170.417969 212.992188 C 170.449219 213.550781 170.703125 214.039062 171.085938 214.382812 C 171.472656 214.722656 171.988281 214.917969 172.539062 214.886719 C 173.097656 214.855469 173.585938 214.601562 173.925781 214.214844 C 174.273438 213.832031 174.46875 213.3125 174.433594 212.761719 C 174.402344 212.203125 174.144531 211.710938 173.761719 211.371094 Z M 154.148438 196.195312 C 153.765625 195.851562 153.246094 195.65625 152.695312 195.6875 C 152.136719 195.71875 151.648438 195.972656 151.308594 196.359375 C 150.96875 196.742188 150.765625 197.261719 150.800781 197.816406 C 150.832031 198.375 151.089844 198.863281 151.472656 199.207031 C 151.855469 199.546875 152.375 199.746094 152.925781 199.710938 C 153.480469 199.679688 153.972656 199.425781 154.3125 199.039062 C 154.652344 198.65625 154.847656 198.136719 154.816406 197.585938 C 154.785156 197.027344 154.53125 196.535156 154.148438 196.195312 Z M 135.976562 212.945312 C 135.589844 212.601562 135.074219 212.40625 134.523438 212.4375 C 133.964844 212.46875 133.476562 212.722656 133.136719 213.109375 C 132.792969 213.492188 132.597656 214.011719 132.628906 214.566406 C 132.660156 215.125 132.914062 215.613281 133.300781 215.957031 C 133.683594 216.296875 134.199219 216.492188 134.753906 216.460938 C 135.308594 216.429688 135.800781 216.175781 136.140625 215.792969 C 136.484375 215.40625 136.675781 214.886719 136.644531 214.335938 C 136.613281 213.777344 136.359375 213.285156 135.976562 212.945312 Z M 135.976562 212.945312 " fill-opacity="1" fill-rule="evenodd"/></g><path fill="rgb(76.858521%, 56.079102%, 43.139648%)" d="M 134.179688 206.375 C 135.167969 206.320312 136.152344 206.441406 137.078125 206.742188 L 144.898438 199.308594 C 144.824219 198.933594 144.773438 198.554688 144.753906 198.167969 C 144.683594 196.929688 144.898438 195.699219 145.367188 194.574219 L 145.367188 176.71875 L 129.019531 185.0625 L 129.019531 208.640625 C 130.40625 207.289062 132.230469 206.480469 134.175781 206.371094 Z M 134.179688 206.375 " fill-opacity="1" fill-rule="evenodd"/><path fill="rgb(76.858521%, 56.079102%, 43.139648%)" d="M 148.09375 191.136719 C 149.332031 190.242188 150.800781 189.714844 152.355469 189.625 C 154.492188 189.503906 156.59375 190.238281 158.191406 191.664062 C 159.792969 193.097656 160.757812 195.09375 160.878906 197.242188 C 160.902344 197.675781 160.894531 198.105469 160.851562 198.535156 L 164.445312 201.316406 L 164.445312 166.984375 L 148.09375 175.328125 Z M 148.09375 191.136719 " fill-opacity="1" fill-rule="evenodd"/><path fill="rgb(76.858521%, 56.079102%, 43.139648%)" d="M 167.171875 165.59375 L 167.171875 203.425781 L 169.597656 205.304688 C 170.355469 205.015625 171.15625 204.847656 171.972656 204.800781 C 172.628906 204.761719 173.289062 204.804688 173.929688 204.925781 L 183.523438 194.421875 L 183.523438 157.25 Z M 167.171875 165.59375 " fill-opacity="1" fill-rule="evenodd"/><path fill="rgb(76.858521%, 56.079102%, 43.139648%)" d="M 186.246094 155.859375 L 186.246094 185.996094 C 186.503906 185.574219 186.800781 185.167969 187.132812 184.796875 C 188.5625 183.191406 190.550781 182.222656 192.699219 182.101562 C 194.839844 181.980469 196.9375 182.714844 198.535156 184.140625 C 200.136719 185.574219 201.097656 187.566406 201.222656 189.714844 C 201.242188 190.042969 201.242188 190.367188 201.21875 190.691406 L 202.597656 191.675781 L 202.597656 147.515625 Z M 186.246094 155.859375 " fill-opacity="1" fill-rule="evenodd"/><path fill="rgb(76.858521%, 56.079102%, 43.139648%)" d="M 205.320312 146.125 L 205.320312 193.617188 L 208.988281 196.234375 C 209.832031 195.878906 210.726562 195.667969 211.652344 195.617188 C 212.382812 195.574219 213.113281 195.632812 213.820312 195.785156 L 221.671875 187.832031 L 221.671875 137.78125 L 216.472656 140.433594 L 205.324219 146.125 Z M 205.320312 146.125 " fill-opacity="1" fill-rule="evenodd"/><g clip-path="url(#id2)"><path fill="rgb(76.858521%, 56.079102%, 43.139648%)" d="M 224.394531 140.429688 L 224.394531 185.066406 L 237.390625 171.90625 L 233.234375 167.714844 L 240.746094 165.722656 L 240.746094 128.042969 L 225.125 136.015625 L 224.394531 136.386719 Z M 224.394531 140.429688 " fill-opacity="1" fill-rule="evenodd"/></g><g clip-path="url(#id3)"><path fill="rgb(13.729858%, 22.349548%, 26.669312%)" d="M 240.746094 180.628906 L 224.394531 197.195312 L 224.394531 251.042969 L 240.746094 251.042969 Z M 240.746094 180.628906 " fill-opacity="1" fill-rule="evenodd"/></g><g clip-path="url(#id4)"><path fill="rgb(13.729858%, 22.349548%, 26.669312%)" d="M 221.671875 251.042969 L 221.671875 199.957031 L 219.945312 201.707031 C 220.070312 202.207031 220.148438 202.714844 220.179688 203.234375 C 220.300781 205.378906 219.570312 207.484375 218.148438 209.085938 C 216.71875 210.691406 214.726562 211.65625 212.582031 211.777344 C 210.441406 211.898438 208.339844 211.164062 206.742188 209.742188 C 206.191406 209.246094 205.714844 208.683594 205.320312 208.074219 L 205.320312 251.050781 L 221.671875 251.050781 Z M 221.671875 251.042969 " fill-opacity="1" fill-rule="evenodd"/></g><g clip-path="url(#id5)"><path fill="rgb(13.729858%, 22.349548%, 26.669312%)" d="M 202.59375 251.042969 L 202.59375 202.140625 L 196.289062 197.640625 C 195.445312 197.992188 194.542969 198.203125 193.621094 198.253906 C 192.960938 198.292969 192.304688 198.25 191.660156 198.128906 L 186.246094 204.0625 L 186.246094 251.042969 L 202.597656 251.042969 Z M 202.59375 251.042969 " fill-opacity="1" fill-rule="evenodd"/></g><g clip-path="url(#id6)"><path fill="rgb(13.729858%, 22.349548%, 26.669312%)" d="M 183.519531 251.042969 L 183.519531 207.046875 L 180.203125 210.679688 C 180.359375 211.246094 180.457031 211.824219 180.492188 212.414062 C 180.613281 214.558594 179.882812 216.664062 178.460938 218.265625 C 177.03125 219.871094 175.039062 220.835938 172.894531 220.957031 C 170.804688 221.078125 168.753906 220.382812 167.167969 219.019531 L 167.167969 251.042969 Z M 183.519531 251.042969 " fill-opacity="1" fill-rule="evenodd"/></g><g clip-path="url(#id7)"><path fill="rgb(13.729858%, 22.349548%, 26.669312%)" d="M 164.445312 251.042969 L 164.445312 214.074219 C 164.410156 213.832031 164.382812 213.589844 164.371094 213.339844 C 164.347656 212.910156 164.355469 212.476562 164.398438 212.050781 L 155.652344 205.285156 C 154.894531 205.570312 154.09375 205.738281 153.277344 205.785156 C 152.414062 205.835938 151.554688 205.746094 150.726562 205.523438 L 148.097656 208.023438 L 148.097656 251.046875 L 164.449219 251.046875 Z M 164.445312 251.042969 " fill-opacity="1" fill-rule="evenodd"/></g><g clip-path="url(#id8)"><path fill="rgb(13.729858%, 22.349548%, 26.669312%)" d="M 145.371094 251.042969 L 145.371094 210.613281 L 142.621094 213.222656 C 142.664062 213.476562 142.691406 213.734375 142.703125 213.988281 C 142.824219 216.132812 142.089844 218.238281 140.667969 219.839844 C 139.238281 221.445312 137.25 222.410156 135.101562 222.53125 C 132.960938 222.65625 130.863281 221.921875 129.265625 220.496094 C 129.183594 220.421875 129.097656 220.34375 129.019531 220.261719 L 129.019531 251.042969 Z M 145.371094 251.042969 " fill-opacity="1" fill-rule="evenodd"/></g><g clip-path="url(#id9)"><path fill="rgb(0%, 0%, 0%)" d="M 161.394531 141.0625 C 161.734375 140.917969 161.832031 138.417969 161.929688 138.027344 C 161.980469 137.632812 162.175781 135.136719 162.519531 134.988281 C 167.855469 132.34375 173.289062 129.992188 178.867188 127.933594 C 200.355469 120.050781 224.441406 116.570312 246.761719 122.9375 C 265.117188 128.179688 282.101562 139.984375 291.695312 156.6875 C 296.789062 165.503906 299.429688 175.546875 299.480469 185.6875 C 299.527344 190.585938 298.84375 195.386719 298.011719 200.136719 C 297.128906 205.082031 296.101562 209.933594 294.4375 214.683594 C 287.339844 234.914062 271.675781 250.492188 252.683594 259.894531 C 231.585938 270.328125 207.699219 272.972656 184.449219 271.113281 C 172.0625 270.085938 159.730469 267.929688 147.6875 264.941406 C 138.386719 262.6875 129.234375 259.75 120.519531 255.78125 C 103.632812 248.089844 87.917969 235.648438 82.386719 217.230469 C 79.109375 206.359375 80.183594 195.484375 82.339844 184.558594 C 84.445312 173.929688 88.996094 164.085938 95.359375 155.367188 C 108.378906 137.632812 127.765625 124.652344 147.6875 115.835938 C 168.734375 106.53125 191.789062 101.972656 214.796875 102.464844 C 214.503906 102.464844 214.0625 108.585938 213.671875 108.585938 C 208.238281 108.441406 202.753906 108.585938 197.320312 109.027344 C 175.589844 110.792969 154.246094 117.160156 135.105469 127.542969 C 116.75 137.535156 99.179688 151.347656 88.847656 169.863281 C 86.253906 174.566406 84.148438 179.515625 82.683594 184.65625 C 82.386719 185.734375 82.144531 186.863281 81.847656 187.988281 C 81.214844 190.390625 82.144531 185.636719 81.949219 187.304688 C 81.800781 188.773438 81.554688 190.242188 81.457031 191.710938 C 81.261719 194.257812 81.261719 196.855469 81.457031 199.402344 C 82.09375 209.246094 85.519531 218.652344 91.394531 226.585938 C 102.164062 241.183594 119.394531 249.707031 136.234375 255.195312 C 146.167969 258.425781 156.449219 260.679688 166.726562 262.492188 C 178.964844 264.597656 191.398438 265.824219 203.832031 265.429688 C 225.027344 264.84375 246.320312 259.554688 264.1875 247.796875 C 272.703125 242.164062 280.292969 235.109375 286.214844 226.785156 C 289.152344 222.570312 291.695312 218.113281 293.703125 213.410156 C 294.730469 211.011719 295.660156 208.5625 296.445312 206.0625 C 296.835938 204.839844 297.179688 203.613281 297.472656 202.390625 C 297.621094 201.753906 297.765625 201.117188 297.914062 200.480469 C 298.453125 198.226562 297.621094 202.929688 297.863281 200.625 C 298.890625 190.585938 298.304688 180.789062 294.683594 171.238281 C 291.453125 162.714844 286.214844 155.023438 279.753906 148.65625 C 265.902344 134.890625 247.054688 127.199219 227.671875 125.878906 C 204.714844 124.359375 181.855469 130.972656 161.394531 141.0625 Z M 161.394531 141.0625 " fill-opacity="1" fill-rule="nonzero"/></g></svg>