<svg xmlns="http://www.w3.org/2000/svg" xmlns:xlink="http://www.w3.org/1999/xlink" width="500" zoomAndPan="magnify" viewBox="0 0 375 374.999991" height="500" preserveAspectRatio="xMidYMid meet" version="1.0"><defs><clipPath id="id1"><path d="M 127.445312 108 L 244 108 L 244 251.953125 L 127.445312 251.953125 Z M 127.445312 108 " clip-rule="nonzero"/></clipPath><clipPath id="id2"><path d="M 60 64.128906 L 315.269531 64.128906 L 315.269531 261 L 60 261 Z M 60 64.128906 " clip-rule="nonzero"/></clipPath></defs><g clip-path="url(#id1)"><path fill="rgb(76.858521%, 56.079102%, 43.139648%)" d="M 168.960938 234.609375 C 168.859375 232.59375 168.945312 231.128906 169.554688 228.90625 C 169.929688 227.546875 170.304688 226.183594 170.289062 224.734375 C 169.035156 222.230469 168.277344 219.410156 167.570312 216.515625 C 163.585938 213.8125 159.9375 208.582031 159.453125 201.9375 C 153.527344 196.152344 151.878906 186.679688 153.234375 181.011719 C 148.917969 175.808594 150.597656 171.113281 149.449219 161.277344 C 147.84375 159.703125 147.511719 157.824219 147.691406 156.253906 C 146.925781 152.355469 147.332031 147.652344 148.382812 142.894531 C 146.617188 143.613281 144.683594 144.011719 142.660156 144.011719 C 134.277344 144.011719 127.480469 137.210938 127.480469 128.824219 C 127.480469 120.433594 134.277344 113.632812 142.660156 113.632812 C 146.503906 113.632812 150.066406 115.007812 152.691406 117.421875 C 154.070312 118.691406 154.890625 118.925781 155.8125 118.632812 C 156.308594 116.171875 157.054688 113.917969 158.136719 112.03125 C 161.453125 109.441406 165.625 107.945312 167.414062 108.972656 C 169.378906 110.105469 171.628906 113.839844 172.246094 117.050781 C 173.976562 118.070312 174.535156 119.84375 174.378906 121.140625 C 174.238281 122.285156 173.84375 123.054688 172.726562 123.460938 C 171.320312 126.121094 168.046875 127.898438 165.609375 127.714844 C 163.796875 132.203125 165.984375 138.214844 164.167969 148.171875 C 167.910156 151.386719 168.65625 157.398438 166.824219 163.101562 C 172.265625 165 171.871094 167.050781 173.65625 171.347656 C 175.246094 170.105469 177.488281 169.394531 178.625 169.097656 C 178.738281 167.4375 178.746094 166.59375 178.757812 164.960938 C 176.9375 163.597656 174.210938 158.273438 177.878906 157.425781 C 177.765625 152.953125 178.8125 148.53125 180.96875 146.316406 C 185.007812 142.175781 192.660156 142.175781 196.695312 146.316406 C 198.855469 148.53125 199.898438 152.953125 199.785156 157.425781 C 203.457031 158.273438 200.730469 163.597656 198.910156 164.960938 C 198.921875 166.59375 198.929688 167.4375 199.039062 169.097656 C 199.050781 169.210938 199.066406 169.316406 199.085938 169.417969 C 204.5 170.46875 209.246094 173.546875 213.089844 177.433594 C 220.972656 176.660156 226.367188 182.140625 228.296875 189.285156 C 234.265625 192.183594 238.585938 198.746094 239.484375 204.066406 C 247.421875 218.84375 244.628906 224.335938 229.453125 231.152344 C 228.09375 231.761719 225.855469 232.261719 224.273438 233.75 C 224.882812 236.164062 226.476562 241.53125 224.460938 245.390625 C 223.765625 246.921875 222.578125 248.316406 220.878906 248.125 C 219.039062 247.914062 216.945312 247.503906 214.914062 246.957031 C 213.53125 246.585938 211.902344 246.066406 210.648438 245.570312 L 210.648438 248.914062 C 207.882812 249.328125 205.113281 249.699219 202.328125 249.980469 C 201.261719 250.089844 200.203125 250.183594 199.148438 250.265625 C 198 250.382812 196.835938 250.472656 195.648438 250.539062 C 195.523438 250.777344 195.359375 250.992188 195.171875 251.179688 C 194.691406 251.660156 194.023438 251.953125 193.289062 251.953125 L 184.535156 251.953125 C 183.804688 251.953125 183.136719 251.660156 182.65625 251.179688 C 182.484375 251.007812 182.332031 250.808594 182.210938 250.59375 C 181.503906 250.5625 180.84375 250.511719 180.214844 250.445312 C 178.597656 250.34375 176.992188 250.207031 175.402344 250.039062 C 172.664062 249.753906 169.945312 249.355469 167.234375 248.894531 L 167.234375 235.597656 C 167.234375 235.085938 167.609375 234.730469 168.175781 234.632812 Z M 226.117188 214.296875 C 221.421875 212.867188 218.675781 210.917969 217.226562 208.0625 C 215.433594 212.078125 213.851562 213.964844 210.097656 216.515625 C 209.390625 219.410156 208.632812 222.230469 207.378906 224.734375 C 207.363281 226.183594 207.738281 227.546875 208.113281 228.90625 C 208.351562 229.769531 208.507812 230.519531 208.605469 231.234375 L 212.457031 229.601562 C 214.894531 226.75 217.628906 223.367188 220.835938 220.347656 C 222.121094 217.707031 224.222656 215.347656 226.117188 214.296875 Z M 195.921875 244.535156 L 196.5625 244.535156 C 197.097656 244.535156 197.53125 244.96875 197.53125 245.503906 C 197.53125 246.039062 197.097656 246.472656 196.5625 246.472656 L 195.921875 246.472656 L 195.921875 248.550781 C 197.976562 248.429688 200.050781 248.265625 202.136719 248.054688 C 204.285156 247.839844 206.472656 247.570312 208.710938 247.242188 L 208.710938 243.898438 C 208.246094 243.042969 208 241.945312 207.972656 240.75 C 207.941406 239.417969 208.1875 237.957031 208.710938 236.585938 L 208.710938 236.539062 C 204.417969 236.417969 200.125 236.339844 195.832031 236.296875 C 195.886719 236.507812 195.953125 236.71875 195.949219 236.933594 L 195.921875 239.75 L 196.5625 239.75 C 197.097656 239.75 197.53125 240.1875 197.53125 240.71875 C 197.53125 241.257812 197.097656 241.691406 196.5625 241.691406 L 195.921875 241.691406 Z M 195.921875 244.535156 L 196.5625 244.535156 C 197.097656 244.535156 197.53125 244.96875 197.53125 245.503906 C 197.53125 245.570312 197.523438 245.636719 197.511719 245.699219 C 197.523438 245.761719 197.53125 245.828125 197.53125 245.890625 C 197.53125 246.425781 197.097656 246.863281 196.5625 246.863281 L 195.921875 246.863281 L 195.921875 248.550781 C 197.976562 248.429688 200.050781 248.265625 202.136719 248.054688 C 204.285156 247.839844 206.472656 247.570312 208.710938 247.242188 L 208.710938 243.898438 C 208.246094 243.042969 208 241.945312 207.972656 240.75 C 207.945312 239.527344 208.148438 238.191406 208.585938 236.921875 C 204.367188 236.808594 200.148438 236.726562 195.925781 236.6875 C 195.941406 236.769531 195.949219 236.851562 195.949219 236.933594 L 195.945312 237.230469 C 195.949219 237.261719 195.949219 237.292969 195.949219 237.324219 L 195.925781 239.75 L 196.5625 239.75 C 197.097656 239.75 197.53125 240.1875 197.53125 240.71875 C 197.53125 240.785156 197.523438 240.851562 197.511719 240.914062 C 197.523438 240.976562 197.53125 241.042969 197.53125 241.109375 C 197.53125 241.644531 197.097656 242.078125 196.5625 242.078125 L 195.921875 242.078125 Z M 232.425781 194.796875 C 228.140625 191.082031 229.007812 195.128906 227.617188 196.433594 C 227.101562 188.363281 223.789062 178.46875 213.753906 179.167969 C 212.546875 179.25 210.640625 179.707031 208.542969 180.242188 C 205.867188 180.976562 199.246094 182.21875 195.59375 182.203125 C 202.453125 180.929688 205.214844 179.707031 207.195312 178.367188 C 207.863281 177.914062 209.511719 175.820312 205.363281 173.648438 C 201.160156 171.449219 198.71875 170.445312 199.359375 176.429688 C 198.335938 174.113281 197.882812 171.441406 197.429688 168.957031 C 197.347656 168.492188 197.285156 168.214844 197.222656 168.117188 C 197.191406 168.054688 197.160156 168.027344 197.128906 168.035156 C 197.03125 168.007812 196.914062 168.292969 196.738281 168.878906 C 196.460938 169.835938 196.125 170.746094 195.753906 171.628906 C 195.042969 173.371094 194.699219 174.242188 195.753906 176.855469 L 195.753906 177.308594 C 193.851562 174.148438 194.09375 173.328125 193.035156 173.15625 C 193.003906 173.152344 192.972656 173.152344 192.9375 173.152344 L 192.925781 173.152344 C 192.898438 173.148438 192.875 173.148438 192.851562 173.148438 C 192.191406 173.136719 191.085938 174.117188 188.882812 174.128906 L 188.878906 174.128906 C 186.675781 174.117188 185.570312 173.136719 184.914062 173.148438 C 184.886719 173.148438 184.863281 173.148438 184.839844 173.152344 L 184.824219 173.152344 C 184.792969 173.152344 184.757812 173.152344 184.726562 173.15625 C 183.554688 173.34375 183.980469 174.332031 181.320312 178.40625 C 183.804688 173.203125 182.367188 173.453125 181.046875 168.957031 C 180.859375 168.316406 180.734375 168.007812 180.636719 168.035156 C 180.601562 168.027344 180.570312 168.054688 180.542969 168.117188 C 180.476562 168.214844 180.417969 168.492188 180.332031 168.957031 C 179.824219 171.75 179.3125 174.777344 177.996094 177.273438 C 179.273438 168.964844 172.714844 172.808594 174.085938 176.449219 C 172.714844 176.113281 172.320312 175.175781 172.109375 174.191406 C 170.566406 166.953125 168.5 165.351562 161.910156 164.847656 C 166.621094 162.460938 166.761719 154.292969 163.722656 150.542969 C 162.558594 152.351562 161.152344 153.886719 159.476562 155.105469 C 161.179688 151.886719 162.425781 148.699219 162.554688 146.929688 C 163.949219 140.277344 162.734375 133.921875 163.773438 127.5625 C 163.066406 127.628906 162.246094 127.386719 161.726562 127.121094 C 164.898438 126.371094 167.488281 122.160156 164.167969 120.003906 L 159.496094 122.574219 C 157.210938 123.972656 157.839844 124.925781 157.839844 128.824219 C 157.839844 134.390625 154.84375 139.261719 150.375 141.90625 C 149.40625 146.132812 148.976562 150.945312 149.703125 156.246094 C 149.09375 160.207031 152.761719 160.753906 155.648438 160.621094 C 154.6875 161.871094 152.445312 161.277344 153.273438 162.367188 C 155.074219 164.742188 156.308594 168.324219 157.640625 172.382812 C 156.214844 169.1875 154.863281 166.644531 153.566406 164.867188 C 150.910156 161.234375 152.566406 167.96875 154.386719 171.765625 C 155.703125 174.507812 153.222656 177.148438 155.363281 179.796875 C 157.15625 182.011719 158.03125 185.4375 158.378906 188.539062 C 152.664062 180.28125 154.886719 195.925781 160.773438 197.355469 C 161.542969 194.558594 163.957031 180.761719 158.949219 172.527344 C 165.824219 179.742188 164.019531 191.558594 165.722656 196.894531 C 167.246094 201.652344 172.910156 204 177.359375 204.609375 C 178.167969 204.71875 179.0625 204.792969 179.945312 204.796875 L 180.046875 204.800781 L 180.171875 204.800781 C 181.878906 204.789062 183.515625 204.523438 184.367188 203.785156 C 187.746094 200.867188 186.074219 194.820312 188.089844 191.257812 L 188.089844 191.460938 C 187.605469 195.6875 188.714844 204.574219 186.070312 206.859375 C 184.863281 207.902344 187.332031 208.125 187.601562 208.171875 C 187.796875 208.203125 187.957031 208.253906 188.089844 208.316406 L 188.089844 208.382812 L 188.214844 208.382812 C 188.695312 208.683594 188.707031 209.238281 188.847656 210.027344 L 188.859375 209.960938 L 188.871094 210.027344 L 188.882812 209.964844 L 188.890625 210.027344 L 188.90625 209.960938 L 188.914062 210.027344 C 189.0625 209.195312 189.070312 208.628906 189.625 208.339844 C 189.847656 208.308594 190.503906 208.230469 190.96875 208.039062 C 191.683594 207.878906 192.488281 207.546875 191.691406 206.859375 C 189.269531 204.765625 189.996094 197.132812 189.765625 192.617188 C 190.835938 196.253906 190.085938 201.449219 192.890625 203.878906 C 194.238281 205.042969 197.523438 205.054688 200.011719 204.714844 C 204.546875 204.09375 210.320312 202.753906 211.871094 197.90625 C 212.328125 196.476562 211.800781 194.261719 210.285156 192.859375 C 212.980469 193.8125 213.628906 193.378906 214.351562 190.308594 C 214.332031 194.019531 215.3125 199.601562 217.527344 204.125 C 220.039062 209.25 229.175781 216.285156 232.566406 207.917969 C 232.402344 210.203125 232.058594 210.953125 231.433594 211.878906 C 230.902344 212.671875 232.601562 212.144531 234.109375 213.375 C 232.3125 213.242188 230.300781 213.796875 229.089844 214.292969 C 222.898438 216.824219 223.265625 222.855469 218.519531 226.484375 C 220.371094 223.894531 220.441406 222.480469 219.890625 223.121094 C 216.929688 226.574219 214.253906 230.039062 213.324219 231.542969 C 211.492188 234.507812 210.382812 236.878906 209.972656 238.882812 C 209.605469 240.664062 209.804688 242.164062 210.550781 243.566406 C 211.949219 244.195312 213.636719 244.765625 215.378906 245.234375 L 215.382812 245.238281 C 217.316406 245.757812 219.316406 246.152344 221.078125 246.351562 C 223.328125 246.605469 224.082031 241.078125 223.484375 237.648438 C 223.136719 235.671875 222.433594 235.796875 222.042969 237.417969 C 221.695312 238.867188 222.925781 238.347656 223.089844 240.175781 C 220.867188 239.460938 221.320312 242.0625 221.722656 243.703125 C 219.085938 241.707031 220.632812 234.238281 223.238281 232.304688 C 224.65625 231.289062 226.621094 230.4375 228.75 229.515625 C 245.109375 222.433594 243.792969 215.488281 237.703125 204.664062 C 237.386719 201.707031 234.308594 196.433594 232.425781 194.796875 Z M 165.699219 119.15625 C 166.09375 119.726562 167.085938 120.058594 167.671875 119.648438 C 169.691406 118.492188 170.050781 117.503906 169.664062 116.105469 C 169.167969 114.320312 168.335938 112.742188 166.578125 110.949219 C 165.722656 110.074219 163.359375 111.023438 159.535156 113.332031 C 158.828125 114.621094 158.3125 116.027344 157.957031 117.53125 L 163.5 114.476562 C 164.75 113.789062 166.316406 114.246094 167.003906 115.496094 C 167.6875 116.746094 167.230469 118.316406 165.984375 119.003906 Z M 170.855469 118.921875 C 172.285156 118.460938 173 120.507812 172.597656 121.039062 C 172.03125 121.789062 171.378906 122 170.863281 122.097656 C 170.003906 122.257812 169.355469 121.238281 169.433594 120.441406 C 169.945312 120.097656 170.5625 119.472656 170.855469 118.921875 Z M 167.410156 121.335938 C 167.746094 121.464844 168.136719 121.222656 168.421875 120.957031 C 168.707031 122.527344 169.445312 123.121094 171.023438 123.046875 C 169.777344 124.953125 166.820312 126.148438 166.058594 126.011719 C 167.039062 124.957031 167.703125 122.902344 167.410156 121.335938 Z M 199.417969 176.945312 C 199.40625 176.855469 199.398438 176.769531 199.386719 176.683594 C 199.398438 176.769531 199.40625 176.855469 199.417969 176.945312 Z M 213.71875 205.074219 C 213.1875 206.070312 212.636719 207.265625 212.195312 208.382812 L 212.21875 208.382812 C 211.523438 210.171875 211.140625 211.695312 211.632812 211.6875 L 211.65625 211.6875 C 211.664062 211.6875 211.675781 211.6875 211.6875 211.6875 C 211.9375 211.699219 212.433594 211.285156 213.261719 210.253906 C 216.035156 206.792969 215.875 204.050781 214.9375 201.898438 C 214.507812 200.917969 214.117188 200.449219 213.628906 200.457031 L 213.585938 200.457031 C 213.476562 200.457031 213.359375 200.480469 213.238281 200.527344 C 212.785156 200.671875 212.242188 201.167969 211.53125 201.992188 C 210.996094 202.613281 210.164062 203.203125 209.191406 203.78125 C 207.605469 204.707031 205.679688 205.59375 204.121094 206.484375 L 204.117188 206.488281 C 203.003906 207.109375 202.046875 207.730469 201.488281 208.382812 C 200.945312 209.011719 201.636719 210.554688 202.457031 211.136719 C 203.757812 212.0625 203.953125 213.367188 203.605469 214.757812 C 203.511719 215.328125 203.625 215.578125 203.875 215.570312 L 203.921875 215.570312 C 204.566406 215.585938 206.195312 213.78125 207.558594 211.410156 C 206.761719 214.214844 204.792969 217.292969 202.382812 218.746094 C 202.558594 219.550781 202.613281 220.351562 202.546875 221.148438 C 202.363281 222.410156 202.574219 223.175781 203.105469 223.164062 L 203.148438 223.164062 C 203.699219 223.175781 204.605469 222.328125 205.773438 220.285156 C 205.164062 222.601562 203.949219 224.230469 201.917969 225.851562 C 202.023438 226.464844 202.058594 227.058594 202.007812 227.640625 C 201.769531 230.289062 199.523438 230.945312 200.242188 233.621094 L 200.289062 233.621094 L 200.289062 233.628906 C 200.523438 233.636719 200.75 233.640625 200.972656 233.640625 L 201.324219 233.640625 C 203.636719 233.632812 205.144531 233.390625 205.949219 232.691406 C 206.777344 232.078125 206.972656 231.121094 206.496094 229.707031 C 206.472656 229.59375 206.445312 229.480469 206.414062 229.363281 C 206.042969 228.261719 205.605469 227.921875 205.050781 227.921875 L 204.988281 227.921875 C 204.316406 227.917969 203.46875 228.414062 202.359375 228.636719 C 205.34375 225.625 207.394531 220.207031 208.492188 215.664062 L 208.460938 215.625 L 208.515625 215.578125 L 208.671875 214.925781 C 209.773438 211.027344 210.699219 208.101562 213.699219 205.109375 Z M 213.964844 200.640625 L 213.925781 200.617188 C 213.941406 200.621094 213.953125 200.628906 213.964844 200.640625 Z M 206.863281 198.691406 C 207.960938 198.210938 209.035156 198.242188 209.265625 198.761719 C 209.492188 199.28125 208.785156 200.09375 207.6875 200.574219 C 206.589844 201.054688 205.515625 201.027344 205.289062 200.503906 C 205.058594 199.984375 205.765625 199.171875 206.863281 198.691406 Z M 208.738281 184.191406 C 210.164062 185.34375 211.84375 187.914062 212.503906 190.257812 C 213.039062 187.757812 211.636719 183.742188 208.871094 183.773438 C 208.539062 183.78125 208.332031 183.859375 208.738281 184.191406 Z M 206.53125 182.402344 C 202.382812 183.921875 194.089844 185.308594 191.945312 189.160156 C 191.613281 183.21875 201.34375 183.679688 206.53125 182.402344 Z M 188.265625 230.101562 L 188.882812 217.929688 L 189.5 230.101562 C 189.613281 232.34375 190.664062 233.46875 191.976562 233.914062 C 192.484375 234.089844 193.03125 234.164062 193.578125 234.164062 C 195.714844 234.164062 197.863281 232.992188 197.644531 232.171875 L 197.574219 232.171875 C 197.496094 232.175781 197.410156 232.175781 197.328125 232.179688 L 197.316406 232.179688 C 194.46875 232.171875 191.1875 230.191406 190 228.644531 C 191.984375 229.476562 193.726562 229.824219 195.164062 229.847656 C 195.21875 229.847656 195.273438 229.847656 195.328125 229.847656 L 195.332031 229.847656 C 195.386719 229.847656 195.445312 229.847656 195.5 229.84375 C 201.390625 229.757812 201.84375 224.011719 192.449219 223.992188 L 192.234375 223.992188 C 192.125 223.992188 192.015625 223.992188 191.90625 223.996094 C 192.800781 223.21875 194.03125 222.746094 195.820312 222.738281 L 195.867188 222.738281 C 196.210938 222.742188 196.574219 222.761719 196.960938 222.800781 C 197.316406 222.835938 197.640625 222.851562 197.9375 222.851562 L 198.082031 222.851562 C 199.921875 222.839844 200.527344 222.152344 200.761719 221.019531 C 201.042969 217.605469 197.355469 216.300781 194.066406 216.289062 L 193.878906 216.289062 C 193.363281 216.292969 192.859375 216.328125 192.382812 216.390625 C 193.496094 215.839844 194.78125 215.550781 196.011719 215.546875 L 196.046875 215.546875 C 196.714844 215.550781 197.363281 215.640625 197.960938 215.816406 C 198.746094 216.039062 199.355469 216.171875 199.847656 216.171875 L 199.894531 216.171875 C 200.871094 216.171875 201.386719 215.664062 201.859375 214.359375 C 202.046875 213.617188 201.980469 212.945312 201.402344 212.535156 C 199.800781 211.394531 198.042969 210.652344 196.359375 210.222656 C 195.121094 209.90625 193.929688 209.777344 192.871094 209.773438 L 192.609375 209.773438 C 192.03125 209.777344 191.492188 209.820312 191.011719 209.890625 C 189.554688 210.097656 189.046875 214.105469 188.882812 215.496094 C 188.714844 214.105469 188.210938 210.097656 186.75 209.890625 C 186.269531 209.820312 185.734375 209.777344 185.152344 209.773438 L 184.890625 209.773438 C 183.832031 209.777344 182.644531 209.90625 181.402344 210.222656 C 179.71875 210.652344 177.960938 211.394531 176.359375 212.535156 C 175.78125 212.945312 175.714844 213.617188 175.902344 214.359375 C 176.378906 215.664062 176.890625 216.171875 177.867188 216.171875 L 177.914062 216.171875 C 178.40625 216.171875 179.019531 216.039062 179.800781 215.816406 C 180.398438 215.640625 181.050781 215.550781 181.714844 215.546875 L 181.75 215.546875 C 182.980469 215.550781 184.265625 215.839844 185.378906 216.390625 C 184.902344 216.328125 184.398438 216.292969 183.882812 216.289062 L 183.695312 216.289062 C 180.40625 216.300781 176.71875 217.605469 177.003906 221.019531 C 177.238281 222.152344 177.839844 222.839844 179.679688 222.851562 L 179.828125 222.851562 C 180.121094 222.851562 180.445312 222.835938 180.800781 222.800781 C 181.1875 222.761719 181.550781 222.742188 181.894531 222.738281 L 181.941406 222.738281 C 183.730469 222.746094 184.960938 223.21875 185.855469 223.996094 C 185.746094 223.992188 185.636719 223.992188 185.527344 223.992188 L 185.3125 223.992188 C 175.921875 224.011719 176.371094 229.757812 182.261719 229.84375 C 182.320312 229.847656 182.375 229.847656 182.433594 229.847656 L 182.4375 229.847656 C 182.488281 229.847656 182.542969 229.847656 182.597656 229.847656 C 184.035156 229.824219 185.777344 229.476562 187.765625 228.644531 C 186.574219 230.191406 183.292969 232.171875 180.445312 232.179688 L 180.433594 232.179688 C 180.351562 232.175781 180.269531 232.175781 180.1875 232.171875 L 180.117188 232.171875 C 179.898438 232.992188 182.046875 234.164062 184.1875 234.164062 C 184.734375 234.164062 185.277344 234.089844 185.785156 233.914062 C 187.097656 233.46875 188.148438 232.34375 188.265625 230.101562 Z M 175.304688 211.136719 C 174.003906 212.0625 173.808594 213.367188 174.160156 214.757812 C 174.25 215.328125 174.136719 215.578125 173.886719 215.570312 L 173.839844 215.570312 C 173.195312 215.585938 171.566406 213.78125 170.203125 211.410156 C 171 214.214844 172.96875 217.292969 175.378906 218.746094 C 175.203125 219.550781 175.148438 220.351562 175.214844 221.148438 C 175.398438 222.410156 175.1875 223.175781 174.65625 223.164062 L 174.613281 223.164062 C 174.0625 223.175781 173.15625 222.328125 171.988281 220.285156 C 172.601562 222.601562 173.8125 224.230469 175.847656 225.851562 C 175.738281 226.464844 175.703125 227.058594 175.757812 227.640625 C 175.996094 230.289062 178.238281 230.945312 177.519531 233.621094 L 177.476562 233.621094 L 177.472656 233.628906 C 177.238281 233.636719 177.011719 233.640625 176.792969 233.640625 L 176.4375 233.640625 C 174.125 233.632812 172.617188 233.390625 171.816406 232.691406 C 170.984375 232.078125 170.792969 231.121094 171.265625 229.707031 C 171.289062 229.59375 171.316406 229.480469 171.347656 229.363281 C 171.71875 228.261719 172.15625 227.921875 172.710938 227.921875 L 172.773438 227.921875 C 173.449219 227.917969 174.292969 228.414062 175.402344 228.636719 C 172.417969 225.625 170.371094 220.207031 169.269531 215.664062 L 169.300781 215.625 L 169.246094 215.578125 L 169.089844 214.925781 C 167.984375 211.019531 167.0625 208.09375 164.050781 205.097656 C 165.441406 207.742188 166.921875 211.703125 166.128906 211.6875 C 166.125 211.6875 166.117188 211.6875 166.113281 211.6875 L 166.105469 211.6875 C 166.097656 211.6875 166.085938 211.6875 166.078125 211.6875 C 165.824219 211.699219 165.328125 211.285156 164.503906 210.253906 C 161.726562 206.792969 161.886719 204.050781 162.828125 201.898438 C 163.253906 200.917969 163.644531 200.449219 164.132812 200.457031 L 164.175781 200.457031 C 164.679688 200.449219 165.277344 200.957031 166.125 201.9375 C 168.941406 205.207031 180.183594 207.667969 175.304688 211.136719 Z M 169.203125 198.363281 C 168.757812 198.371094 168.421875 198.503906 168.304688 198.769531 C 168.082031 199.277344 168.773438 200.074219 169.851562 200.546875 C 170.355469 200.769531 170.851562 200.878906 171.265625 200.882812 L 171.285156 200.882812 C 171.730469 200.878906 172.066406 200.742188 172.183594 200.480469 C 172.40625 199.96875 171.714844 199.171875 170.636719 198.699219 C 170.136719 198.476562 169.636719 198.367188 169.226562 198.363281 Z M 163.976562 172.847656 C 167.125 184.925781 182.9375 184.765625 185.269531 189.351562 C 185.601562 183.519531 170.332031 184.457031 163.976562 172.847656 Z M 164.167969 120.003906 L 159.496094 122.574219 C 157.929688 123.425781 157.691406 124.511719 157.746094 125.816406 C 157.785156 126.796875 157.839844 127.867188 157.839844 128.824219 C 157.839844 133.0625 156.101562 136.894531 153.304688 139.648438 L 153.203125 139.75 L 153.199219 139.75 L 153.144531 139.804688 L 153.03125 139.910156 L 152.984375 139.957031 L 152.941406 139.996094 L 152.859375 140.070312 L 152.855469 140.074219 L 152.808594 140.113281 L 152.765625 140.15625 L 152.585938 140.3125 L 152.578125 140.320312 L 152.5 140.386719 L 152.398438 140.472656 L 152.320312 140.539062 L 152.207031 140.628906 L 152.136719 140.683594 L 152.019531 140.78125 L 151.949219 140.832031 L 151.800781 140.949219 L 151.769531 140.972656 C 151.714844 141.011719 151.664062 141.050781 151.609375 141.089844 L 151.570312 141.121094 C 151.515625 141.15625 151.464844 141.195312 151.410156 141.234375 L 151.378906 141.253906 C 151.320312 141.296875 151.261719 141.339844 151.203125 141.378906 L 151.195312 141.382812 L 151.179688 141.394531 C 151.050781 141.480469 150.921875 141.566406 150.789062 141.648438 L 150.789062 141.652344 L 150.78125 141.65625 C 150.71875 141.695312 150.65625 141.734375 150.59375 141.773438 L 150.582031 141.777344 L 150.578125 141.78125 L 150.570312 141.785156 C 150.507812 141.828125 150.441406 141.867188 150.375 141.90625 L 150.371094 141.929688 L 150.355469 141.980469 L 150.351562 142.007812 L 150.34375 142.03125 L 150.332031 142.082031 L 150.328125 142.101562 L 150.328125 142.109375 L 150.324219 142.136719 L 150.300781 142.238281 L 150.292969 142.265625 L 150.289062 142.289062 L 150.285156 142.304688 L 150.28125 142.316406 L 150.277344 142.339844 L 150.273438 142.367188 L 150.261719 142.417969 L 150.253906 142.445312 L 150.25 142.46875 L 150.242188 142.496094 L 150.242188 142.503906 L 150.238281 142.523438 L 150.234375 142.546875 L 150.226562 142.574219 L 150.222656 142.597656 L 150.214844 142.625 L 150.210938 142.652344 L 150.203125 142.675781 L 150.199219 142.703125 L 150.1875 142.753906 L 150.183594 142.78125 L 150.171875 142.835938 L 150.167969 142.859375 L 150.160156 142.886719 L 150.15625 142.90625 L 150.15625 142.914062 L 150.152344 142.9375 L 150.148438 142.964844 L 150.140625 142.992188 L 150.136719 143.015625 L 150.125 143.070312 L 150.121094 143.09375 L 150.117188 143.109375 L 150.113281 143.121094 L 150.105469 143.171875 L 150.097656 143.199219 L 150.089844 143.253906 L 150.070312 143.359375 L 150.0625 143.382812 L 150.054688 143.4375 L 150.046875 143.464844 L 150.042969 143.488281 L 150.039062 143.515625 L 150.027344 143.566406 C 149.316406 147.382812 149.070312 151.632812 149.703125 156.246094 C 149.09375 160.207031 152.761719 160.753906 155.648438 160.621094 C 154.6875 161.871094 152.445312 161.277344 153.273438 162.367188 C 155.074219 164.742188 156.308594 168.324219 157.640625 172.382812 C 156.214844 169.1875 154.863281 166.644531 153.566406 164.867188 C 151.253906 161.703125 152.210938 166.402344 153.699219 170.171875 C 153.554688 167.277344 155.53125 170.738281 158.359375 174.675781 C 157.960938 171.011719 156.859375 166.527344 155.195312 162.535156 C 156.273438 161.996094 157.089844 161.292969 157.785156 160.523438 C 154.230469 159.777344 151.15625 158.644531 151.054688 156.035156 C 150.851562 150.652344 151.539062 146.175781 152.613281 142.167969 C 157.5625 138.746094 159.316406 131.886719 158.652344 126.289062 C 158.3125 123.398438 163.101562 123.414062 164.167969 120.003906 Z M 187.945312 194.613281 C 187.917969 197.820312 188.039062 201.757812 187.351562 204.414062 C 188.351562 203.566406 189.378906 203.664062 190.421875 204.460938 C 189.710938 201.769531 189.851562 197.71875 189.816406 194.46875 C 189.28125 195.042969 188.554688 195.105469 187.945312 194.613281 Z M 190.28125 195.332031 C 190.679688 198.507812 190.734375 202.011719 192.890625 203.878906 C 194.238281 205.042969 197.523438 205.054688 200.011719 204.714844 C 204.546875 204.09375 210.320312 202.753906 211.871094 197.90625 C 212.328125 196.476562 211.800781 194.261719 210.285156 192.859375 C 212.980469 193.8125 213.628906 193.378906 214.351562 190.308594 C 214.332031 194.019531 215.3125 199.601562 217.527344 204.125 C 219.9375 209.039062 228.445312 215.710938 232.125 208.859375 C 231.191406 210.019531 230.355469 210.34375 229.601562 210.058594 C 221.261719 206.90625 213.808594 194.804688 215.386719 186.871094 C 214.449219 189.585938 212.410156 194.820312 208.730469 191.246094 C 210.914062 194.078125 211.996094 197.207031 209.265625 199.203125 C 209.109375 199.671875 208.507812 200.214844 207.6875 200.574219 C 206.898438 200.921875 206.121094 201.003906 205.664062 200.828125 C 201.898438 202.183594 197.796875 203.089844 193.78125 201.601562 C 191.523438 200.765625 190.828125 197.695312 190.28125 195.332031 Z M 232.519531 208.507812 C 232.335938 210.34375 232 211.035156 231.433594 211.878906 C 231.039062 212.46875 231.871094 212.328125 232.945312 212.71875 C 232.246094 212.078125 232.570312 211.375 232.710938 210.542969 C 232.816406 209.9375 232.757812 209.257812 232.519531 208.507812 Z M 211.699219 234.382812 C 210.816406 236.085938 210.242188 237.5625 209.972656 238.882812 C 209.605469 240.664062 209.804688 242.164062 210.550781 243.566406 C 211.949219 244.195312 213.636719 244.765625 215.378906 245.234375 L 215.382812 245.238281 C 217.316406 245.757812 219.316406 246.152344 221.078125 246.351562 C 223.328125 246.605469 224.082031 241.078125 223.484375 237.648438 C 223.136719 235.671875 222.433594 235.796875 222.042969 237.417969 C 221.695312 238.867188 222.925781 238.347656 223.089844 240.175781 C 220.867188 239.460938 221.320312 242.0625 221.722656 243.703125 C 219.085938 241.707031 220.632812 234.238281 223.238281 232.304688 C 224.65625 231.289062 226.621094 230.4375 228.75 229.515625 C 240.125 224.589844 242.953125 219.734375 241.574219 213.589844 C 241.394531 215.855469 240.726562 217.679688 239.609375 219.09375 C 235.484375 224.296875 229.464844 225.457031 224.691406 228.960938 C 224.523438 229.082031 223.554688 229.25 223.394531 229.375 C 222.527344 230.058594 223.1875 231.019531 222.59375 231.628906 C 221.921875 232.320312 220.933594 232.476562 220.34375 233.128906 C 219.039062 234.585938 218.074219 237.023438 218.277344 238.941406 C 218.539062 241.460938 210.507812 240.515625 210.914062 237.847656 C 211.089844 236.710938 211.355469 235.550781 211.699219 234.382812 Z M 201.375 209.523438 C 203.761719 206.636719 208.601562 206.796875 211.660156 204.65625 C 213.082031 203.660156 215.105469 202.5625 215.066406 205.21875 C 215.058594 205.882812 215.050781 206.71875 214.914062 207.585938 C 215.890625 205.34375 215.621094 203.46875 214.9375 201.898438 C 214.507812 200.917969 214.117188 200.449219 213.628906 200.457031 L 213.585938 200.457031 C 213.476562 200.457031 213.359375 200.480469 213.238281 200.527344 C 212.785156 200.671875 212.242188 201.167969 211.53125 201.992188 C 210.996094 202.613281 210.164062 203.203125 209.191406 203.78125 C 207.605469 204.707031 205.679688 205.59375 204.121094 206.484375 L 204.117188 206.488281 C 203.003906 207.109375 202.046875 207.730469 201.488281 208.382812 C 201.257812 208.648438 201.25 209.074219 201.375 209.523438 Z M 175.886719 214.289062 C 176.324219 214.949219 177.167969 215.359375 178.292969 215.121094 C 181.160156 214.503906 183.957031 214.554688 187.097656 215.144531 C 187.953125 215.308594 188.414062 214.46875 188.554688 213.351562 C 188.722656 214.203125 188.824219 215.007812 188.882812 215.496094 C 188.9375 215.019531 189.035156 214.230469 189.199219 213.398438 C 189.351562 214.492188 189.824219 215.304688 190.664062 215.144531 C 193.808594 214.554688 196.601562 214.503906 199.46875 215.121094 C 200.402344 215.320312 201.246094 215.070312 201.769531 214.601562 C 201.320312 215.726562 200.808594 216.171875 199.894531 216.171875 L 199.847656 216.171875 C 199.355469 216.171875 198.746094 216.039062 197.960938 215.816406 C 197.363281 215.640625 196.714844 215.550781 196.046875 215.546875 L 196.011719 215.546875 C 194.78125 215.550781 193.496094 215.839844 192.382812 216.390625 C 192.4375 216.382812 192.496094 216.375 192.550781 216.371094 C 191.558594 216.628906 190.488281 216.9375 190.058594 217.445312 C 189.613281 217.980469 190.175781 220.992188 190.796875 221.300781 C 193.328125 222.550781 194.914062 221.371094 198.71875 222.132812 C 199.296875 222.25 200.089844 221.871094 200.738281 220.851562 C 200.738281 220.945312 200.734375 221.035156 200.726562 221.128906 C 200.707031 221.226562 200.683594 221.324219 200.65625 221.417969 C 200.359375 222.3125 199.695312 222.839844 198.082031 222.851562 L 197.9375 222.851562 C 197.640625 222.851562 197.316406 222.835938 196.960938 222.800781 C 196.574219 222.761719 196.210938 222.742188 195.867188 222.738281 L 195.820312 222.738281 C 194.03125 222.746094 192.800781 223.21875 191.90625 223.996094 L 191.9375 223.996094 C 191.710938 224.125 191.488281 224.28125 191.261719 224.472656 C 190.257812 225.339844 190.582031 227.003906 191.679688 227.746094 C 194.316406 229.53125 198.179688 229.539062 199.742188 227.367188 C 199.667969 228.644531 198.125 229.804688 195.5 229.84375 C 195.445312 229.847656 195.386719 229.847656 195.332031 229.847656 L 195.328125 229.847656 C 195.273438 229.847656 195.21875 229.847656 195.164062 229.847656 C 193.726562 229.824219 191.984375 229.476562 190 228.644531 C 191.1875 230.191406 194.46875 232.171875 197.316406 232.179688 L 197.328125 232.179688 C 197.410156 232.175781 197.496094 232.175781 197.574219 232.171875 L 197.644531 232.171875 C 197.863281 232.992188 195.714844 234.164062 193.578125 234.164062 C 193.03125 234.164062 192.484375 234.089844 191.976562 233.914062 C 190.664062 233.46875 189.613281 232.34375 189.5 230.101562 L 188.882812 217.929688 L 188.265625 230.101562 C 188.148438 232.34375 187.097656 233.46875 185.785156 233.914062 C 185.277344 234.089844 184.734375 234.164062 184.1875 234.164062 C 182.046875 234.164062 179.898438 232.992188 180.117188 232.171875 L 180.1875 232.171875 C 180.269531 232.175781 180.351562 232.175781 180.433594 232.179688 L 180.445312 232.179688 C 183.292969 232.171875 186.574219 230.191406 187.765625 228.644531 C 185.777344 229.476562 184.035156 229.824219 182.597656 229.847656 C 182.542969 229.847656 182.488281 229.847656 182.4375 229.847656 L 182.433594 229.847656 C 182.375 229.847656 182.320312 229.847656 182.261719 229.84375 C 179.648438 229.804688 178.105469 228.652344 178.019531 227.378906 C 179.609375 229.511719 183.464844 229.519531 186.082031 227.746094 C 187.179688 227.003906 187.503906 225.339844 186.5 224.472656 C 186.277344 224.28125 186.050781 224.125 185.824219 223.996094 L 185.855469 223.996094 C 184.960938 223.21875 183.730469 222.746094 181.941406 222.738281 L 181.894531 222.738281 C 181.550781 222.742188 181.1875 222.761719 180.800781 222.800781 C 180.445312 222.835938 180.121094 222.851562 179.828125 222.851562 L 179.679688 222.851562 C 177.839844 222.839844 177.238281 222.152344 177.003906 221.019531 C 177 220.988281 177 220.953125 176.996094 220.921875 C 177.640625 221.886719 178.480469 222.246094 179.046875 222.132812 C 182.847656 221.371094 184.4375 222.550781 186.964844 221.300781 C 187.589844 220.992188 188.152344 217.980469 187.703125 217.445312 C 187.273438 216.9375 186.203125 216.628906 185.210938 216.371094 C 185.265625 216.375 185.324219 216.382812 185.378906 216.390625 C 184.265625 215.839844 182.980469 215.550781 181.75 215.546875 L 181.714844 215.546875 C 181.050781 215.550781 180.398438 215.640625 179.800781 215.816406 C 179.019531 216.039062 178.40625 216.171875 177.914062 216.171875 L 177.867188 216.171875 C 176.890625 216.171875 176.378906 215.664062 175.902344 214.359375 Z M 203.726562 214.105469 C 204.75 214.410156 206.601562 212.332031 208.402344 209.769531 L 207.652344 211.296875 C 207.613281 211.367188 207.570312 211.4375 207.53125 211.507812 L 207.558594 211.410156 C 206.195312 213.78125 204.566406 215.585938 203.921875 215.570312 L 203.875 215.570312 C 203.625 215.578125 203.511719 215.328125 203.605469 214.757812 C 203.660156 214.539062 203.699219 214.320312 203.726562 214.105469 Z M 202.484375 221.902344 C 203.832031 221.949219 205.351562 220.585938 206.6875 218.289062 L 205.683594 220.617188 C 205.714844 220.507812 205.746094 220.398438 205.773438 220.285156 C 204.605469 222.328125 203.699219 223.175781 203.148438 223.164062 L 203.105469 223.164062 C 202.691406 223.171875 202.46875 222.707031 202.484375 221.902344 Z M 202.023438 227.375 C 202.90625 227.035156 203.832031 225.652344 204.714844 224.527344 C 203.921875 226.121094 202.980469 227.476562 201.898438 228.386719 C 201.941406 228.191406 201.976562 227.984375 201.996094 227.761719 C 202 227.71875 202.003906 227.671875 202.007812 227.628906 L 202.007812 227.625 C 202.015625 227.539062 202.019531 227.457031 202.023438 227.375 Z M 201.265625 229.804688 C 201.5 230.234375 201.78125 230.945312 201.804688 231.792969 C 201.839844 233.140625 206.070312 231.652344 205.859375 230.007812 C 205.722656 228.9375 205.050781 228.25 204.296875 228.042969 C 204.546875 227.96875 204.773438 227.921875 204.988281 227.921875 L 205.050781 227.921875 C 205.605469 227.921875 206.042969 228.261719 206.414062 229.363281 C 206.445312 229.480469 206.472656 229.59375 206.496094 229.707031 C 206.972656 231.121094 206.777344 232.078125 205.949219 232.691406 C 205.144531 233.390625 203.636719 233.632812 201.324219 233.640625 L 200.972656 233.640625 C 200.75 233.640625 200.523438 233.636719 200.289062 233.628906 L 200.289062 233.621094 L 200.242188 233.621094 C 199.765625 231.851562 200.585938 230.964844 201.265625 229.804688 Z M 173.453125 228.042969 C 172.734375 228.292969 172.035156 228.996094 171.902344 230.007812 C 171.691406 231.652344 176.09375 233.097656 176.132812 231.75 C 176.160156 230.726562 176.300781 230.160156 176.511719 229.832031 C 177.1875 230.980469 177.992188 231.863281 177.519531 233.621094 L 177.476562 233.621094 L 177.472656 233.628906 C 177.238281 233.636719 177.011719 233.640625 176.792969 233.640625 L 176.4375 233.640625 C 174.125 233.632812 172.617188 233.390625 171.816406 232.691406 C 170.984375 232.078125 170.792969 231.121094 171.265625 229.707031 C 171.289062 229.59375 171.316406 229.480469 171.347656 229.363281 C 171.71875 228.261719 172.15625 227.921875 172.710938 227.921875 L 172.773438 227.921875 C 172.984375 227.921875 173.210938 227.96875 173.453125 228.042969 Z M 175.875 228.351562 C 174.820312 227.441406 173.820312 226.085938 173.046875 224.527344 C 173.902344 225.613281 174.875 226.972656 175.738281 227.367188 C 175.742188 227.457031 175.75 227.550781 175.757812 227.640625 C 175.78125 227.894531 175.820312 228.132812 175.875 228.351562 Z M 172.039062 220.371094 L 171.074219 218.289062 C 172.425781 220.613281 173.921875 221.960938 175.277344 221.878906 C 175.296875 222.699219 175.074219 223.171875 174.65625 223.164062 L 174.613281 223.164062 C 174.070312 223.175781 173.183594 222.351562 172.039062 220.371094 Z M 170.113281 211.296875 L 169.363281 209.769531 C 171.171875 212.347656 173.007812 214.355469 174.027344 214.015625 C 174.050781 214.257812 174.09375 214.507812 174.160156 214.757812 C 174.25 215.328125 174.136719 215.578125 173.886719 215.570312 L 173.839844 215.570312 C 173.195312 215.585938 171.566406 213.78125 170.203125 211.410156 L 170.238281 211.527344 C 170.195312 211.449219 170.152344 211.375 170.113281 211.296875 Z M 213.964844 200.640625 L 213.925781 200.617188 C 213.941406 200.621094 213.953125 200.628906 213.964844 200.640625 Z M 179.492188 173.132812 C 179.835938 171.742188 180.085938 170.324219 180.332031 168.957031 C 180.417969 168.496094 180.476562 168.214844 180.542969 168.117188 C 180.570312 168.054688 180.601562 168.027344 180.636719 168.035156 C 180.734375 168.007812 180.859375 168.316406 181.046875 168.957031 C 182.15625 172.734375 183.347656 173.164062 182.222656 176.292969 C 182.753906 173.269531 180.988281 169.75 179.492188 173.132812 Z M 181.785156 177.671875 C 183.933594 174.210938 183.628906 173.332031 184.726562 173.15625 C 184.757812 173.152344 184.792969 173.152344 184.824219 173.152344 L 184.839844 173.152344 C 184.863281 173.148438 184.886719 173.148438 184.914062 173.148438 C 185.570312 173.136719 186.675781 174.117188 188.878906 174.128906 L 188.882812 174.128906 C 191.085938 174.117188 192.191406 173.136719 192.851562 173.148438 C 192.875 173.148438 192.898438 173.148438 192.925781 173.152344 L 192.9375 173.152344 C 192.972656 173.152344 193.003906 173.152344 193.035156 173.15625 C 194.136719 173.332031 193.828125 174.21875 196 177.710938 C 193.832031 175.394531 192.660156 178.578125 191.601562 178.472656 C 190.152344 178.328125 188.9375 178.378906 188.855469 174.734375 C 188.925781 178.359375 188.148438 178.183594 186.722656 178.367188 C 185.644531 178.507812 184.476562 174.394531 181.800781 177.703125 Z M 195.582031 176.40625 C 194.386719 173.171875 195.59375 172.78125 196.714844 168.957031 C 196.902344 168.316406 197.027344 168.007812 197.128906 168.035156 C 197.160156 168.027344 197.191406 168.054688 197.222656 168.117188 C 197.285156 168.214844 197.347656 168.496094 197.429688 168.957031 C 197.671875 170.289062 197.917969 171.675781 198.246094 173.03125 C 196.738281 169.78125 194.992188 173.390625 195.582031 176.40625 Z M 163.128906 208.175781 C 162.855469 207.050781 162.726562 206.066406 162.714844 205.21875 C 162.675781 202.5625 164.703125 203.660156 166.125 204.65625 C 169.289062 206.875 174.1875 206.507812 176.476562 209.722656 C 177.179688 206.957031 168.542969 204.746094 166.125 201.9375 C 165.277344 200.957031 164.679688 200.449219 164.175781 200.457031 L 164.132812 200.457031 C 163.644531 200.449219 163.253906 200.917969 162.828125 201.898438 C 162.082031 203.601562 161.828125 205.671875 163.128906 208.175781 Z M 187.117188 194.402344 C 185.644531 199.035156 184.019531 201.75 182.453125 202.015625 C 178.792969 202.636719 175.101562 202.648438 171.605469 200.855469 C 171.507812 200.871094 171.398438 200.878906 171.285156 200.882812 L 171.265625 200.882812 C 170.855469 200.878906 170.355469 200.769531 169.851562 200.546875 C 168.773438 200.074219 168.082031 199.28125 168.304688 198.769531 C 168.34375 198.6875 168.398438 198.621094 168.472656 198.5625 C 164.929688 194.671875 165.628906 188.207031 163.644531 182.675781 C 164.847656 188.152344 164.699219 193.691406 165.722656 196.894531 C 167.246094 201.652344 172.910156 204 177.359375 204.609375 C 178.167969 204.71875 179.0625 204.792969 179.941406 204.796875 L 180.046875 204.800781 L 180.171875 204.800781 C 181.878906 204.789062 183.515625 204.523438 184.367188 203.785156 C 186.878906 201.617188 186.601562 197.722656 187.117188 194.402344 Z M 190.609375 147.878906 C 191.082031 147.628906 191.511719 147.300781 191.808594 146.886719 C 192.046875 146.5625 192.300781 146.351562 192.574219 146.238281 C 190.242188 145.234375 187.539062 145.234375 185.210938 146.238281 C 185.480469 146.351562 185.738281 146.5625 185.976562 146.886719 C 186.273438 147.300781 186.703125 147.628906 187.175781 147.878906 C 188.394531 148.519531 189.390625 148.519531 190.609375 147.878906 Z M 195.457031 148.234375 C 195.492188 148.296875 195.523438 148.359375 195.554688 148.425781 C 196.363281 150.101562 197.023438 152.984375 196.484375 154.328125 C 197.433594 155.109375 197.589844 156.320312 197.601562 157.511719 C 197.71875 157.386719 197.839844 157.25 197.964844 157.09375 C 197.988281 156.691406 198.003906 156.304688 198.007812 155.925781 C 197.957031 152.472656 197.097656 149.949219 195.457031 148.234375 Z M 179.777344 155.925781 C 179.78125 156.304688 179.792969 156.691406 179.816406 157.09375 C 179.945312 157.25 180.066406 157.386719 180.183594 157.511719 C 180.195312 156.320312 180.351562 155.109375 181.296875 154.328125 C 180.761719 152.984375 181.421875 150.101562 182.230469 148.425781 C 182.261719 148.359375 182.292969 148.296875 182.324219 148.234375 C 180.683594 149.949219 179.828125 152.472656 179.777344 155.925781 Z M 187.425781 170.78125 C 188.402344 171.128906 189.378906 171.128906 190.359375 170.78125 C 192.511719 172.699219 193.375 172.125 195.167969 169.878906 C 196.035156 168.792969 195.554688 167.632812 195.953125 165.882812 C 196.160156 164.972656 197.203125 163.902344 197.53125 162.59375 C 197.214844 166.007812 200.265625 161.292969 199.792969 159.640625 C 199.636719 159.09375 199.355469 158.714844 198.566406 158.765625 C 197.84375 159.574219 196.910156 159.492188 195.996094 160.050781 C 196.53125 157.738281 197.125 155.976562 194.824219 154.664062 C 196.113281 153.128906 195.320312 150.617188 194.507812 148.933594 C 194.289062 148.480469 194.042969 148.082031 193.789062 147.785156 C 193.574219 147.53125 193.367188 147.363281 193.191406 147.3125 C 193.0625 147.277344 192.914062 147.351562 192.753906 147.574219 C 192.34375 148.136719 191.773438 148.582031 191.144531 148.910156 C 189.519531 149.761719 188.265625 149.761719 186.636719 148.910156 C 186.011719 148.582031 185.4375 148.136719 185.03125 147.574219 C 184.871094 147.351562 184.722656 147.277344 184.59375 147.3125 C 184.414062 147.363281 184.210938 147.53125 183.992188 147.785156 C 183.738281 148.082031 183.496094 148.480469 183.277344 148.933594 C 182.464844 150.617188 181.671875 153.128906 182.960938 154.664062 C 180.660156 155.976562 181.253906 157.738281 181.785156 160.050781 C 180.871094 159.492188 179.941406 159.574219 179.21875 158.765625 C 178.429688 158.714844 178.039062 159.074219 177.992188 159.640625 C 177.828125 161.550781 180.570312 166.007812 180.253906 162.59375 C 180.578125 163.902344 181.625 164.972656 181.832031 165.878906 C 182.230469 167.632812 181.75 168.792969 182.617188 169.878906 C 184.410156 172.125 185.269531 172.699219 187.425781 170.78125 Z M 190.730469 171.097656 C 192.621094 172.625 193.480469 171.988281 195.167969 169.882812 C 196.035156 168.792969 195.554688 167.632812 195.953125 165.882812 C 196.128906 165.121094 196.886719 164.242188 197.324219 163.210938 C 196.207031 163.6875 195.375 163.882812 194.546875 164.957031 C 193.121094 166.800781 194.003906 170.300781 192.679688 171.085938 C 192.136719 171.40625 191.445312 171.300781 190.730469 171.097656 Z M 180.460938 163.210938 C 180.894531 164.242188 181.65625 165.117188 181.832031 165.878906 C 182.230469 167.632812 181.75 168.792969 182.617188 169.878906 C 184.300781 171.988281 185.164062 172.625 187.050781 171.097656 C 186.339844 171.300781 185.644531 171.40625 185.105469 171.085938 C 183.78125 170.300781 184.664062 166.800781 183.238281 164.957031 C 182.410156 163.882812 181.578125 163.6875 180.460938 163.210938 Z M 182.042969 159.273438 C 183.449219 157.957031 185.128906 159.355469 185.894531 158.726562 C 186.371094 158.328125 186.644531 159.480469 186.6875 160.359375 C 187.324219 158.714844 186.886719 157.203125 186.019531 157.160156 C 185.128906 157.109375 183.5625 156.996094 182.804688 157.5 C 182.320312 157.820312 182.0625 158.449219 182.042969 159.273438 Z M 188.15625 161.949219 C 187.335938 162.9375 185.777344 162.738281 186.9375 163.375 C 188.335938 163.125 189.503906 163.136719 190.847656 163.375 C 192.152344 162.660156 190.335938 162.777344 189.628906 161.949219 C 189.253906 161.511719 188.53125 161.5 188.15625 161.949219 Z M 185.007812 166.617188 C 187.597656 166.070312 190.1875 166.054688 192.777344 166.617188 C 189.652344 164.941406 188.246094 164.839844 185.007812 166.617188 Z M 186.121094 167.441406 C 188.457031 168.800781 189.457031 168.734375 191.664062 167.441406 C 189.816406 167.261719 187.96875 167.238281 186.121094 167.441406 Z M 195.6875 159.273438 C 195.667969 158.449219 195.414062 157.820312 194.925781 157.5 C 194.167969 156.996094 192.601562 157.109375 191.710938 157.160156 C 190.847656 157.203125 190.410156 158.714844 191.042969 160.359375 C 191.085938 159.480469 191.359375 158.328125 191.839844 158.726562 C 192.601562 159.355469 194.285156 157.957031 195.6875 159.273438 Z M 208.742188 233.273438 C 208.742188 233.710938 208.730469 234.160156 208.703125 234.644531 L 209.652344 234.664062 L 209.867188 234.0625 C 210.128906 233.535156 210.417969 232.992188 210.734375 232.429688 Z M 142.644531 115.15625 C 146.535156 115.15625 150.042969 116.789062 152.527344 119.402344 C 153.542969 120.472656 154.695312 120.070312 155.367188 119.710938 L 162.753906 115.730469 C 163.285156 115.464844 163.691406 116.277344 163.160156 116.542969 L 154.535156 121.144531 C 153.003906 121.960938 150.828125 121.214844 150.03125 119.605469 C 152.15625 120.828125 152.914062 120.160156 150.46875 118.527344 C 148.84375 117.441406 146.957031 116.726562 144.933594 116.449219 C 145.378906 116.636719 145.652344 116.878906 145.652344 117.140625 C 145.652344 117.746094 144.234375 118.234375 142.488281 118.234375 C 140.742188 118.234375 139.324219 117.746094 139.324219 117.140625 C 139.324219 117.019531 139.386719 116.898438 139.496094 116.785156 C 133.6875 118.34375 129.40625 123.652344 129.40625 129.957031 C 129.40625 131.246094 129.585938 132.492188 129.921875 133.675781 C 129.335938 132.160156 129.019531 130.511719 129.019531 128.792969 C 129.019531 121.261719 135.121094 115.15625 142.644531 115.15625 Z M 164.65625 114.898438 C 165.019531 114.898438 165.316406 115.105469 165.316406 115.359375 C 165.316406 115.613281 165.019531 115.820312 164.65625 115.820312 C 164.289062 115.820312 163.992188 115.613281 163.992188 115.359375 C 163.992188 115.105469 164.289062 114.898438 164.65625 114.898438 Z M 133.460938 138.601562 C 141.445312 145.683594 155.9375 141.257812 156.117188 129.339844 C 153.375 140.042969 142.429688 143.472656 133.460938 138.601562 Z M 193.984375 246.472656 L 192.765625 246.472656 L 192.765625 247.019531 C 192.765625 247.523438 192.601562 247.992188 192.335938 248.34375 C 192.011719 248.777344 191.542969 249.046875 191.003906 249.046875 L 186.878906 249.046875 C 186.339844 249.046875 185.871094 248.777344 185.546875 248.34375 C 185.28125 247.992188 185.117188 247.523438 185.117188 247.019531 L 185.117188 239.242188 C 185.117188 238.742188 185.28125 238.269531 185.546875 237.917969 C 185.871094 237.484375 186.339844 237.21875 186.878906 237.21875 L 191.003906 237.21875 C 191.542969 237.21875 192.011719 237.484375 192.335938 237.917969 C 192.601562 238.269531 192.765625 238.742188 192.765625 239.242188 L 192.765625 239.75 L 193.984375 239.75 L 193.984375 236.984375 C 193.984375 236.792969 193.902344 236.617188 193.777344 236.488281 C 193.648438 236.363281 193.472656 236.28125 193.28125 236.28125 L 184.597656 236.28125 C 184.40625 236.28125 184.230469 236.363281 184.105469 236.488281 C 183.976562 236.617188 183.898438 236.792969 183.898438 236.984375 L 183.898438 249.292969 C 183.902344 249.480469 183.980469 249.648438 184.105469 249.773438 C 184.230469 249.902344 184.40625 249.980469 184.597656 249.980469 L 193.28125 249.980469 C 193.472656 249.980469 193.648438 249.902344 193.777344 249.773438 C 193.886719 249.664062 193.960938 249.515625 193.976562 249.355469 L 193.976562 249.351562 L 193.980469 249.347656 L 193.980469 249.34375 C 193.980469 249.324219 193.984375 249.304688 193.984375 249.289062 Z M 192.765625 244.535156 L 193.984375 244.535156 L 193.984375 241.691406 L 192.765625 241.691406 Z M 193.984375 246.472656 L 192.765625 246.472656 L 192.765625 247.019531 C 192.765625 247.523438 192.601562 247.992188 192.335938 248.34375 C 192.011719 248.777344 191.542969 249.046875 191.003906 249.046875 L 186.878906 249.046875 C 186.339844 249.046875 185.871094 248.777344 185.546875 248.34375 C 185.28125 247.992188 185.117188 247.523438 185.117188 247.019531 L 185.117188 239.242188 C 185.117188 238.742188 185.28125 238.269531 185.546875 237.917969 C 185.871094 237.484375 186.339844 237.21875 186.878906 237.21875 L 191.003906 237.21875 C 191.542969 237.21875 192.011719 237.484375 192.335938 237.917969 C 192.601562 238.269531 192.765625 238.742188 192.765625 239.242188 L 192.765625 239.75 L 193.984375 239.75 L 193.984375 236.988281 L 183.898438 236.988281 L 183.898438 249.292969 C 183.902344 249.480469 183.980469 249.648438 184.105469 249.773438 C 184.230469 249.902344 184.40625 249.980469 184.597656 249.980469 L 193.28125 249.980469 C 193.472656 249.980469 193.648438 249.902344 193.777344 249.773438 C 193.886719 249.664062 193.960938 249.515625 193.976562 249.355469 L 193.976562 249.351562 L 193.980469 249.347656 L 193.980469 249.34375 C 193.980469 249.324219 193.984375 249.304688 193.984375 249.289062 Z M 192.765625 244.535156 L 193.984375 244.535156 L 193.984375 241.691406 L 192.765625 241.691406 Z M 193.984375 246.472656 L 192.765625 246.472656 L 192.765625 246.925781 L 193.984375 246.925781 Z M 193.984375 242.140625 L 192.765625 242.140625 L 192.765625 241.691406 L 193.984375 241.691406 Z M 190.390625 246.472656 C 189.859375 246.472656 189.421875 246.039062 189.421875 245.503906 C 189.421875 244.96875 189.859375 244.535156 190.390625 244.535156 L 190.828125 244.535156 L 190.828125 241.691406 L 190.390625 241.691406 C 189.859375 241.691406 189.421875 241.257812 189.421875 240.71875 C 189.421875 240.1875 189.859375 239.75 190.390625 239.75 L 190.828125 239.75 L 190.828125 239.242188 C 190.828125 239.210938 190.824219 239.179688 190.820312 239.15625 L 187.0625 239.15625 C 187.058594 239.179688 187.054688 239.210938 187.054688 239.242188 L 187.054688 247.019531 C 187.054688 247.054688 187.058594 247.082031 187.0625 247.105469 L 190.820312 247.105469 C 190.824219 247.082031 190.828125 247.054688 190.828125 247.019531 L 190.828125 246.472656 Z M 182.050781 236.296875 C 177.757812 236.339844 173.464844 236.417969 169.171875 236.539062 L 169.171875 247.257812 C 171.300781 247.605469 173.441406 247.890625 175.601562 248.117188 C 177.703125 248.335938 179.824219 248.5 181.960938 248.609375 L 181.960938 236.984375 C 181.960938 236.75 181.992188 236.519531 182.050781 236.296875 Z M 190.390625 246.863281 C 189.859375 246.863281 189.421875 246.425781 189.421875 245.890625 C 189.421875 245.828125 189.429688 245.761719 189.441406 245.699219 C 189.429688 245.636719 189.421875 245.570312 189.421875 245.503906 C 189.421875 244.96875 189.859375 244.535156 190.390625 244.535156 L 190.828125 244.535156 L 190.828125 242.078125 L 190.390625 242.078125 C 189.859375 242.078125 189.421875 241.644531 189.421875 241.109375 C 189.421875 241.042969 189.429688 240.976562 189.441406 240.914062 C 189.429688 240.851562 189.421875 240.785156 189.421875 240.71875 C 189.421875 240.1875 189.859375 239.75 190.390625 239.75 L 190.828125 239.75 L 190.828125 239.621094 C 190.824219 239.59375 190.824219 239.179688 190.820312 239.15625 L 187.0625 239.15625 C 187.058594 239.179688 187.054688 239.59375 187.054688 239.621094 L 187.054688 247.027344 C 187.054688 247.058594 187.058594 247.082031 187.0625 247.105469 L 190.820312 247.105469 C 190.824219 247.082031 190.824219 247.058594 190.828125 247.027344 L 190.828125 246.863281 Z M 181.976562 236.6875 C 177.707031 236.726562 173.441406 236.808594 169.171875 236.925781 L 169.171875 247.257812 C 171.300781 247.605469 173.441406 247.890625 175.601562 248.117188 C 177.703125 248.335938 179.824219 248.5 181.960938 248.609375 L 181.960938 236.984375 C 181.960938 236.882812 181.964844 236.785156 181.976562 236.6875 " fill-opacity="1" fill-rule="evenodd"/></g><g clip-path="url(#id2)"><path fill="rgb(10.978699%, 12.939453%, 12.548828%)" d="M 155.003906 109.386719 C 155.402344 109.21875 155.515625 106.324219 155.628906 105.871094 C 155.683594 105.417969 155.910156 102.523438 156.308594 102.355469 C 162.496094 99.292969 168.800781 96.570312 175.273438 94.1875 C 200.195312 85.054688 228.128906 81.03125 254.019531 88.402344 C 275.308594 94.472656 295.007812 108.140625 306.136719 127.480469 C 312.042969 137.691406 315.105469 149.316406 315.164062 161.058594 C 315.222656 166.730469 314.425781 172.289062 313.460938 177.789062 C 312.4375 183.519531 311.246094 189.132812 309.316406 194.632812 C 301.082031 218.058594 282.917969 236.09375 260.886719 246.984375 C 236.417969 259.066406 208.710938 262.128906 181.742188 259.972656 C 167.378906 258.78125 153.074219 256.285156 139.105469 252.824219 C 128.320312 250.21875 117.703125 246.8125 107.597656 242.21875 C 88.007812 233.316406 69.785156 218.910156 63.367188 197.582031 C 59.566406 184.992188 60.8125 172.402344 63.3125 159.753906 C 65.753906 147.445312 71.035156 136.046875 78.414062 125.949219 C 93.515625 105.417969 116 90.386719 139.105469 80.179688 C 163.519531 69.402344 190.261719 64.128906 216.945312 64.695312 C 216.605469 64.695312 216.09375 71.785156 215.636719 71.785156 C 209.335938 71.613281 202.976562 71.785156 196.675781 72.296875 C 171.46875 74.335938 146.714844 81.710938 124.515625 93.734375 C 103.226562 105.304688 82.84375 121.296875 70.863281 142.738281 C 67.855469 148.183594 65.414062 153.910156 63.710938 159.867188 C 63.371094 161.113281 63.085938 162.417969 62.746094 163.722656 C 62.007812 166.503906 63.085938 161 62.859375 162.929688 C 62.6875 164.628906 62.402344 166.332031 62.289062 168.035156 C 62.0625 170.984375 62.0625 173.988281 62.289062 176.9375 C 63.027344 188.339844 67.003906 199.226562 73.816406 208.417969 C 86.304688 225.316406 106.289062 235.1875 125.820312 241.539062 C 137.347656 245.28125 149.269531 247.890625 161.191406 249.992188 C 175.386719 252.429688 189.804688 253.847656 204.226562 253.394531 C 228.808594 252.710938 253.507812 246.585938 274.230469 232.976562 C 284.109375 226.453125 292.910156 218.285156 299.777344 208.644531 C 303.183594 203.765625 306.136719 198.605469 308.464844 193.160156 C 309.65625 190.378906 310.734375 187.542969 311.644531 184.652344 C 312.097656 183.234375 312.496094 181.816406 312.835938 180.398438 C 313.007812 179.660156 313.175781 178.921875 313.347656 178.1875 C 313.972656 175.578125 313.007812 181.023438 313.289062 178.355469 C 314.484375 166.730469 313.800781 155.386719 309.601562 144.324219 C 305.851562 134.457031 299.777344 125.550781 292.285156 118.179688 C 276.214844 102.242188 254.359375 93.335938 231.875 91.804688 C 205.25 90.046875 178.734375 97.703125 155.003906 109.386719 Z M 155.003906 109.386719 " fill-opacity="1" fill-rule="nonzero"/></g></svg>